<svg xmlns="http://www.w3.org/2000/svg" width="560" height="300" font-family="Inter,sans-serif">
<rect width="560" height="300" fill="#ffffff"/>
<g transform="translate(68,25)">
<text x="166" y="-8" text-anchor="middle" font-size="12" font-weight="700" fill="#111827">AI-Tune Efficacy Convergence</text>
<line x1="0" x2="332" y1="227" y2="227" stroke="#e5e7eb" stroke-width="0.6"/>
<line x1="0" x2="332" y1="189.16666666666669" y2="189.16666666666669" stroke="#e5e7eb" stroke-width="0.6"/>
<line x1="0" x2="332" y1="151.33333333333334" y2="151.33333333333334" stroke="#e5e7eb" stroke-width="0.6"/>
<line x1="0" x2="332" y1="113.5" y2="113.5" stroke="#e5e7eb" stroke-width="0.6"/>
<line x1="0" x2="332" y1="75.66666666666667" y2="75.66666666666667" stroke="#e5e7eb" stroke-width="0.6"/>
<line x1="0" x2="332" y1="37.83333333333332" y2="37.83333333333332" stroke="#e5e7eb" stroke-width="0.6"/>
<line x1="0" x2="332" y1="0" y2="0" stroke="#e5e7eb" stroke-width="0.6"/>
<line x1="0" x2="332" y1="24.66733333333334" y2="24.66733333333334" stroke="#ef4444" stroke-width="1" stroke-dasharray="4,3"/>
<text x="336" y="27.66733333333334" font-size="8" fill="#ef4444">98% of guided peak</text>
<circle cx="1.3833333333333333" cy="250.94704219055834" r="2" fill="#9ca3af" opacity="0.16"/>
<circle cx="5.533333333333333" cy="241.32771363504602" r="2" fill="#9ca3af" opacity="0.16"/>
<circle cx="6.916666666666667" cy="219.63204868514123" r="2" fill="#9ca3af" opacity="0.16"/>
<circle cx="8.3" cy="222.64209288533587" r="2" fill="#9ca3af" opacity="0.16"/>
<circle cx="9.683333333333334" cy="231.97405499379636" r="2" fill="#9ca3af" opacity="0.16"/>
<circle cx="11.066666666666666" cy="208.17507408293827" r="2" fill="#9ca3af" opacity="0.16"/>
<circle cx="12.45" cy="190.45743251463466" r="2" fill="#9ca3af" opacity="0.16"/>
<circle cx="15.216666666666667" cy="219.73999229988556" r="2" fill="#9ca3af" opacity="0.16"/>
<circle cx="16.6" cy="208.48934761542344" r="2" fill="#9ca3af" opacity="0.16"/>
<circle cx="17.983333333333334" cy="199.7510839644901" r="2" fill="#9ca3af" opacity="0.16"/>
<circle cx="19.366666666666667" cy="240.0602789208519" r="2" fill="#9ca3af" opacity="0.16"/>
<circle cx="20.75" cy="208.79239445173485" r="2" fill="#9ca3af" opacity="0.16"/>
<circle cx="22.133333333333333" cy="211.53048756993016" r="2" fill="#9ca3af" opacity="0.16"/>
<circle cx="23.516666666666666" cy="239.63785486890143" r="2" fill="#9ca3af" opacity="0.16"/>
<circle cx="24.9" cy="247.3793850030524" r="2" fill="#9ca3af" opacity="0.16"/>
<circle cx="26.283333333333335" cy="191.28066282105894" r="2" fill="#9ca3af" opacity="0.16"/>
<circle cx="27.666666666666668" cy="250.94704219055834" r="2" fill="#9ca3af" opacity="0.16"/>
<circle cx="29.05" cy="222.84694533912463" r="2" fill="#9ca3af" opacity="0.16"/>
<circle cx="30.433333333333334" cy="237.99085122365858" r="2" fill="#9ca3af" opacity="0.16"/>
<circle cx="31.816666666666666" cy="183.94929089900012" r="2" fill="#9ca3af" opacity="0.16"/>
<circle cx="33.2" cy="246.75720583030176" r="2" fill="#9ca3af" opacity="0.16"/>
<circle cx="34.583333333333336" cy="229.17928661920746" r="2" fill="#9ca3af" opacity="0.16"/>
<circle cx="35.96666666666667" cy="186.80774485177582" r="2" fill="#9ca3af" opacity="0.16"/>
<circle cx="37.35" cy="194.79053951069926" r="2" fill="#9ca3af" opacity="0.16"/>
<circle cx="38.733333333333334" cy="187.17197602619137" r="2" fill="#9ca3af" opacity="0.16"/>
<circle cx="40.11666666666667" cy="225.75697122396954" r="2" fill="#9ca3af" opacity="0.16"/>
<circle cx="41.5" cy="233.80926222039528" r="2" fill="#9ca3af" opacity="0.16"/>
<circle cx="42.88333333333333" cy="186.2204244286578" r="2" fill="#9ca3af" opacity="0.16"/>
<circle cx="47.03333333333333" cy="180.44621970576205" r="2" fill="#9ca3af" opacity="0.16"/>
<circle cx="48.416666666666664" cy="174.55248503168426" r="2" fill="#9ca3af" opacity="0.16"/>
<circle cx="51.18333333333333" cy="227.31013551772648" r="2" fill="#9ca3af" opacity="0.16"/>
<circle cx="52.56666666666667" cy="160.88764112002772" r="2" fill="#9ca3af" opacity="0.16"/>
<circle cx="53.95" cy="172.8647431777031" r="2" fill="#9ca3af" opacity="0.16"/>
<circle cx="55.333333333333336" cy="232.92504735138058" r="2" fill="#9ca3af" opacity="0.16"/>
<circle cx="56.71666666666667" cy="215.9857865965779" r="2" fill="#9ca3af" opacity="0.16"/>
<circle cx="58.1" cy="164.84430157314426" r="2" fill="#9ca3af" opacity="0.16"/>
<circle cx="60.86666666666667" cy="176.33398583501491" r="2" fill="#9ca3af" opacity="0.16"/>
<circle cx="62.25" cy="157.3180552499344" r="2" fill="#9ca3af" opacity="0.16"/>
<circle cx="63.63333333333333" cy="217.9807362499172" r="2" fill="#9ca3af" opacity="0.16"/>
<circle cx="65.01666666666667" cy="216.29951166553283" r="2" fill="#9ca3af" opacity="0.16"/>
<circle cx="66.4" cy="204.00856160123706" r="2" fill="#9ca3af" opacity="0.16"/>
<circle cx="67.78333333333333" cy="179.32663850933213" r="2" fill="#9ca3af" opacity="0.16"/>
<circle cx="69.16666666666667" cy="182.92178580935425" r="2" fill="#9ca3af" opacity="0.16"/>
<circle cx="71.93333333333334" cy="198.28362318014933" r="2" fill="#9ca3af" opacity="0.16"/>
<circle cx="73.31666666666666" cy="226.5883184332327" r="2" fill="#9ca3af" opacity="0.16"/>
<circle cx="74.7" cy="206.9788440896539" r="2" fill="#9ca3af" opacity="0.16"/>
<circle cx="76.08333333333333" cy="218.5866082016808" r="2" fill="#9ca3af" opacity="0.16"/>
<circle cx="77.46666666666667" cy="155.50800701296035" r="2" fill="#9ca3af" opacity="0.16"/>
<circle cx="78.85" cy="188.59317919351548" r="2" fill="#9ca3af" opacity="0.16"/>
<circle cx="80.23333333333333" cy="232.5019505124835" r="2" fill="#9ca3af" opacity="0.16"/>
<circle cx="81.61666666666666" cy="155.19193389749148" r="2" fill="#9ca3af" opacity="0.16"/>
<circle cx="83" cy="223.56968557190993" r="2" fill="#9ca3af" opacity="0.16"/>
<circle cx="84.38333333333334" cy="174.41794741522304" r="2" fill="#9ca3af" opacity="0.16"/>
<circle cx="85.76666666666667" cy="184.78841573840793" r="2" fill="#9ca3af" opacity="0.16"/>
<circle cx="87.15" cy="199.60522567259562" r="2" fill="#9ca3af" opacity="0.16"/>
<circle cx="88.53333333333333" cy="199.5578775540087" r="2" fill="#9ca3af" opacity="0.16"/>
<circle cx="89.91666666666667" cy="196.98891126282535" r="2" fill="#9ca3af" opacity="0.16"/>
<circle cx="91.3" cy="173.97155858647346" r="2" fill="#9ca3af" opacity="0.16"/>
<circle cx="92.68333333333334" cy="201.94150750215974" r="2" fill="#9ca3af" opacity="0.16"/>
<circle cx="94.06666666666666" cy="200.90133707577775" r="2" fill="#9ca3af" opacity="0.16"/>
<circle cx="95.45" cy="184.715056894322" r="2" fill="#9ca3af" opacity="0.16"/>
<circle cx="96.83333333333333" cy="164.73760589664116" r="2" fill="#9ca3af" opacity="0.16"/>
<circle cx="98.21666666666667" cy="153.51881762855888" r="2" fill="#9ca3af" opacity="0.16"/>
<circle cx="100.98333333333333" cy="221.53833700608664" r="2" fill="#9ca3af" opacity="0.16"/>
<circle cx="102.36666666666666" cy="154.3091817501055" r="2" fill="#9ca3af" opacity="0.16"/>
<circle cx="103.75" cy="199.4200014238772" r="2" fill="#9ca3af" opacity="0.16"/>
<circle cx="105.13333333333334" cy="164.74596779758545" r="2" fill="#9ca3af" opacity="0.16"/>
<circle cx="106.51666666666667" cy="149.78228392305786" r="2" fill="#9ca3af" opacity="0.16"/>
<circle cx="107.9" cy="195.21814515717708" r="2" fill="#9ca3af" opacity="0.16"/>
<circle cx="109.28333333333333" cy="175.45656085619584" r="2" fill="#9ca3af" opacity="0.16"/>
<circle cx="110.66666666666667" cy="161.7336041077479" r="2" fill="#9ca3af" opacity="0.16"/>
<circle cx="112.05" cy="219.10911424946028" r="2" fill="#9ca3af" opacity="0.16"/>
<circle cx="113.43333333333334" cy="174.58942243441535" r="2" fill="#9ca3af" opacity="0.16"/>
<circle cx="114.81666666666666" cy="206.2660656623419" r="2" fill="#9ca3af" opacity="0.16"/>
<circle cx="116.2" cy="162.97668464719786" r="2" fill="#9ca3af" opacity="0.16"/>
<circle cx="117.58333333333333" cy="179.38429940846646" r="2" fill="#9ca3af" opacity="0.16"/>
<circle cx="118.96666666666667" cy="175.2096492865101" r="2" fill="#9ca3af" opacity="0.16"/>
<circle cx="120.35" cy="207.7775883494515" r="2" fill="#9ca3af" opacity="0.16"/>
<circle cx="123.11666666666666" cy="165.39024259712394" r="2" fill="#9ca3af" opacity="0.16"/>
<circle cx="124.5" cy="209.77840871529526" r="2" fill="#9ca3af" opacity="0.16"/>
<circle cx="125.88333333333334" cy="178.66800328139553" r="2" fill="#9ca3af" opacity="0.16"/>
<circle cx="127.26666666666667" cy="166.088310351759" r="2" fill="#9ca3af" opacity="0.16"/>
<circle cx="128.65" cy="193.90884887260847" r="2" fill="#9ca3af" opacity="0.16"/>
<circle cx="130.03333333333333" cy="155.77584485530005" r="2" fill="#9ca3af" opacity="0.16"/>
<circle cx="131.41666666666666" cy="175.6608353666163" r="2" fill="#9ca3af" opacity="0.16"/>
<circle cx="132.8" cy="190.0763212785799" r="2" fill="#9ca3af" opacity="0.16"/>
<circle cx="134.18333333333334" cy="191.25765838109388" r="2" fill="#9ca3af" opacity="0.16"/>
<circle cx="135.56666666666666" cy="190.2880197307795" r="2" fill="#9ca3af" opacity="0.16"/>
<circle cx="136.95" cy="200.29930333166539" r="2" fill="#9ca3af" opacity="0.16"/>
<circle cx="138.33333333333334" cy="182.78552670862604" r="2" fill="#9ca3af" opacity="0.16"/>
<circle cx="139.71666666666667" cy="199.11511772647532" r="2" fill="#9ca3af" opacity="0.16"/>
<circle cx="141.1" cy="189.97837505545263" r="2" fill="#9ca3af" opacity="0.16"/>
<circle cx="142.48333333333332" cy="185.6380762913488" r="2" fill="#9ca3af" opacity="0.16"/>
<circle cx="143.86666666666667" cy="182.39651024490297" r="2" fill="#9ca3af" opacity="0.16"/>
<circle cx="145.25" cy="182.55866184197396" r="2" fill="#9ca3af" opacity="0.16"/>
<circle cx="146.63333333333333" cy="207.1738672713074" r="2" fill="#9ca3af" opacity="0.16"/>
<circle cx="148.01666666666668" cy="132.49792704088375" r="2" fill="#9ca3af" opacity="0.16"/>
<circle cx="149.4" cy="189.0486625232905" r="2" fill="#9ca3af" opacity="0.16"/>
<circle cx="150.78333333333333" cy="157.3661016848807" r="2" fill="#9ca3af" opacity="0.16"/>
<circle cx="152.16666666666666" cy="143.02426927355378" r="2" fill="#9ca3af" opacity="0.16"/>
<circle cx="154.93333333333334" cy="196.82694844895857" r="2" fill="#9ca3af" opacity="0.16"/>
<circle cx="156.31666666666666" cy="150.51360314238704" r="2" fill="#9ca3af" opacity="0.16"/>
<circle cx="157.7" cy="183.53563767738868" r="2" fill="#9ca3af" opacity="0.16"/>
<circle cx="159.08333333333334" cy="132.42231827891982" r="2" fill="#9ca3af" opacity="0.16"/>
<circle cx="160.46666666666667" cy="134.6924719254083" r="2" fill="#9ca3af" opacity="0.16"/>
<circle cx="161.85" cy="155.94461906850526" r="2" fill="#9ca3af" opacity="0.16"/>
<circle cx="163.23333333333332" cy="189.3840970522903" r="2" fill="#9ca3af" opacity="0.16"/>
<circle cx="164.61666666666667" cy="180.88810712602083" r="2" fill="#9ca3af" opacity="0.16"/>
<circle cx="166" cy="137.65889647536767" r="2" fill="#9ca3af" opacity="0.16"/>
<circle cx="167.38333333333333" cy="183.17095063865995" r="2" fill="#9ca3af" opacity="0.16"/>
<circle cx="168.76666666666668" cy="193.2908751572289" r="2" fill="#9ca3af" opacity="0.16"/>
<circle cx="170.15" cy="188.19540759253525" r="2" fill="#9ca3af" opacity="0.16"/>
<circle cx="171.53333333333333" cy="159.56358864247704" r="2" fill="#9ca3af" opacity="0.16"/>
<circle cx="172.91666666666666" cy="143.53526003370126" r="2" fill="#9ca3af" opacity="0.16"/>
<circle cx="174.3" cy="199.96599978755765" r="2" fill="#9ca3af" opacity="0.16"/>
<circle cx="177.06666666666666" cy="180.10615630775823" r="2" fill="#9ca3af" opacity="0.16"/>
<circle cx="178.45" cy="135.80151801155856" r="2" fill="#9ca3af" opacity="0.16"/>
<circle cx="179.83333333333334" cy="169.75406996780077" r="2" fill="#9ca3af" opacity="0.16"/>
<circle cx="181.21666666666667" cy="138.73322162995356" r="2" fill="#9ca3af" opacity="0.16"/>
<circle cx="182.6" cy="132.6091896699537" r="2" fill="#9ca3af" opacity="0.16"/>
<circle cx="183.98333333333332" cy="170.48461633147775" r="2" fill="#9ca3af" opacity="0.16"/>
<circle cx="185.36666666666667" cy="150.01477141635624" r="2" fill="#9ca3af" opacity="0.16"/>
<circle cx="186.75" cy="187.7203785251808" r="2" fill="#9ca3af" opacity="0.16"/>
<circle cx="188.13333333333333" cy="172.4197548633233" r="2" fill="#9ca3af" opacity="0.16"/>
<circle cx="189.51666666666668" cy="175.69528191757678" r="2" fill="#9ca3af" opacity="0.16"/>
<circle cx="190.9" cy="196.68314454355922" r="2" fill="#9ca3af" opacity="0.16"/>
<circle cx="192.28333333333333" cy="154.13855784023357" r="2" fill="#9ca3af" opacity="0.16"/>
<circle cx="193.66666666666666" cy="176.7822205095565" r="2" fill="#9ca3af" opacity="0.16"/>
<circle cx="195.05" cy="136.83627181981365" r="2" fill="#9ca3af" opacity="0.16"/>
<circle cx="196.43333333333334" cy="133.0872597084325" r="2" fill="#9ca3af" opacity="0.16"/>
<circle cx="197.81666666666666" cy="178.65853955519594" r="2" fill="#9ca3af" opacity="0.16"/>
<circle cx="199.2" cy="125.55034284449945" r="2" fill="#9ca3af" opacity="0.16"/>
<circle cx="200.58333333333334" cy="166.88823255352986" r="2" fill="#9ca3af" opacity="0.16"/>
<circle cx="201.96666666666667" cy="167.06738590451346" r="2" fill="#9ca3af" opacity="0.16"/>
<circle cx="206.11666666666667" cy="128.98580409163378" r="2" fill="#9ca3af" opacity="0.16"/>
<circle cx="207.5" cy="170.45941273976396" r="2" fill="#9ca3af" opacity="0.16"/>
<circle cx="208.88333333333333" cy="131.23987776204106" r="2" fill="#9ca3af" opacity="0.16"/>
<circle cx="210.26666666666668" cy="120.72367183362888" r="2" fill="#9ca3af" opacity="0.16"/>
<circle cx="211.65" cy="188.8829659631283" r="2" fill="#9ca3af" opacity="0.16"/>
<circle cx="213.03333333333333" cy="116.45217505826378" r="2" fill="#9ca3af" opacity="0.16"/>
<circle cx="214.41666666666666" cy="124.04295817331169" r="2" fill="#9ca3af" opacity="0.16"/>
<circle cx="215.8" cy="112.35577733206392" r="2" fill="#9ca3af" opacity="0.16"/>
<circle cx="217.18333333333334" cy="135.82307311283571" r="2" fill="#9ca3af" opacity="0.16"/>
<circle cx="218.56666666666666" cy="174.70749200562202" r="2" fill="#9ca3af" opacity="0.16"/>
<circle cx="219.95" cy="185.31177711334732" r="2" fill="#9ca3af" opacity="0.16"/>
<circle cx="221.33333333333334" cy="156.18675516971382" r="2" fill="#9ca3af" opacity="0.16"/>
<circle cx="222.71666666666667" cy="181.10394702094126" r="2" fill="#9ca3af" opacity="0.16"/>
<circle cx="224.1" cy="148.57392377691554" r="2" fill="#9ca3af" opacity="0.16"/>
<circle cx="225.48333333333332" cy="115.94334956035017" r="2" fill="#9ca3af" opacity="0.16"/>
<circle cx="226.86666666666667" cy="152.85649776735116" r="2" fill="#9ca3af" opacity="0.16"/>
<circle cx="228.25" cy="136.75318412572759" r="2" fill="#9ca3af" opacity="0.16"/>
<circle cx="229.63333333333333" cy="130.49499854014303" r="2" fill="#9ca3af" opacity="0.16"/>
<circle cx="231.01666666666668" cy="164.43195757503867" r="2" fill="#9ca3af" opacity="0.16"/>
<circle cx="232.4" cy="184.1776779886348" r="2" fill="#9ca3af" opacity="0.16"/>
<circle cx="233.78333333333333" cy="137.00275412951362" r="2" fill="#9ca3af" opacity="0.16"/>
<circle cx="235.16666666666666" cy="161.4633476207879" r="2" fill="#9ca3af" opacity="0.16"/>
<circle cx="236.55" cy="131.97360024656157" r="2" fill="#9ca3af" opacity="0.16"/>
<circle cx="237.93333333333334" cy="140.32595761836254" r="2" fill="#9ca3af" opacity="0.16"/>
<circle cx="239.31666666666666" cy="120.22946706363395" r="2" fill="#9ca3af" opacity="0.16"/>
<circle cx="240.7" cy="123.52520277379263" r="2" fill="#9ca3af" opacity="0.16"/>
<circle cx="242.08333333333334" cy="112.8695447561747" r="2" fill="#9ca3af" opacity="0.16"/>
<circle cx="243.46666666666667" cy="143.9554565863296" r="2" fill="#9ca3af" opacity="0.16"/>
<circle cx="244.85" cy="134.6694681167077" r="2" fill="#9ca3af" opacity="0.16"/>
<circle cx="246.23333333333332" cy="130.09807307046614" r="2" fill="#9ca3af" opacity="0.16"/>
<circle cx="247.61666666666667" cy="114.61916622384634" r="2" fill="#9ca3af" opacity="0.16"/>
<circle cx="250.38333333333333" cy="98.06828588581588" r="2" fill="#9ca3af" opacity="0.16"/>
<circle cx="251.76666666666668" cy="103.91051425649795" r="2" fill="#9ca3af" opacity="0.16"/>
<circle cx="253.15" cy="139.94262622249846" r="2" fill="#9ca3af" opacity="0.16"/>
<circle cx="254.53333333333333" cy="160.9593089085245" r="2" fill="#9ca3af" opacity="0.16"/>
<circle cx="255.91666666666666" cy="130.05736001471698" r="2" fill="#9ca3af" opacity="0.16"/>
<circle cx="257.3" cy="179.58096385108442" r="2" fill="#9ca3af" opacity="0.16"/>
<circle cx="258.68333333333334" cy="106.36067211708844" r="2" fill="#9ca3af" opacity="0.16"/>
<circle cx="260.06666666666666" cy="125.92898778428949" r="2" fill="#9ca3af" opacity="0.16"/>
<circle cx="261.45" cy="174.1032911993252" r="2" fill="#9ca3af" opacity="0.16"/>
<circle cx="262.8333333333333" cy="98.84376319675819" r="2" fill="#9ca3af" opacity="0.16"/>
<circle cx="264.21666666666664" cy="136.9191572323678" r="2" fill="#9ca3af" opacity="0.16"/>
<circle cx="265.6" cy="128.45325939888886" r="2" fill="#9ca3af" opacity="0.16"/>
<circle cx="266.98333333333335" cy="100.56698157777555" r="2" fill="#9ca3af" opacity="0.16"/>
<circle cx="268.3666666666667" cy="148.9013498824531" r="2" fill="#9ca3af" opacity="0.16"/>
<circle cx="271.1333333333333" cy="159.98272022482755" r="2" fill="#9ca3af" opacity="0.16"/>
<circle cx="272.51666666666665" cy="142.58040643026607" r="2" fill="#9ca3af" opacity="0.16"/>
<circle cx="273.9" cy="127.43072694721928" r="2" fill="#9ca3af" opacity="0.16"/>
<circle cx="276.6666666666667" cy="170.13959178083508" r="2" fill="#9ca3af" opacity="0.16"/>
<circle cx="278.05" cy="166.68942245943643" r="2" fill="#9ca3af" opacity="0.16"/>
<circle cx="279.43333333333334" cy="140.45998312966256" r="2" fill="#9ca3af" opacity="0.16"/>
<circle cx="280.81666666666666" cy="118.96539398489568" r="2" fill="#9ca3af" opacity="0.16"/>
<circle cx="282.2" cy="178.46611811251287" r="2" fill="#9ca3af" opacity="0.16"/>
<circle cx="283.5833333333333" cy="100.34621792899571" r="2" fill="#9ca3af" opacity="0.16"/>
<circle cx="286.35" cy="119.95512301286527" r="2" fill="#9ca3af" opacity="0.16"/>
<circle cx="287.73333333333335" cy="101.5057000300518" r="2" fill="#9ca3af" opacity="0.16"/>
<circle cx="289.1166666666667" cy="91.78367195586547" r="2" fill="#9ca3af" opacity="0.16"/>
<circle cx="290.5" cy="176.48464974558675" r="2" fill="#9ca3af" opacity="0.16"/>
<circle cx="291.8833333333333" cy="139.51074282915155" r="2" fill="#9ca3af" opacity="0.16"/>
<circle cx="293.26666666666665" cy="104.67359881843598" r="2" fill="#9ca3af" opacity="0.16"/>
<circle cx="294.65" cy="113.14876322605495" r="2" fill="#9ca3af" opacity="0.16"/>
<circle cx="296.03333333333336" cy="166.01118317063728" r="2" fill="#9ca3af" opacity="0.16"/>
<circle cx="297.4166666666667" cy="114.50264609240614" r="2" fill="#9ca3af" opacity="0.16"/>
<circle cx="298.8" cy="91.13264358062455" r="2" fill="#9ca3af" opacity="0.16"/>
<circle cx="300.18333333333334" cy="135.31640777925173" r="2" fill="#9ca3af" opacity="0.16"/>
<circle cx="301.56666666666666" cy="138.98593105513984" r="2" fill="#9ca3af" opacity="0.16"/>
<circle cx="302.95" cy="109.96012796935987" r="2" fill="#9ca3af" opacity="0.16"/>
<circle cx="304.3333333333333" cy="125.82293408924103" r="2" fill="#9ca3af" opacity="0.16"/>
<circle cx="305.71666666666664" cy="118.269003075123" r="2" fill="#9ca3af" opacity="0.16"/>
<circle cx="307.1" cy="99.27509742840432" r="2" fill="#9ca3af" opacity="0.16"/>
<circle cx="309.8666666666667" cy="111.4462357633807" r="2" fill="#9ca3af" opacity="0.16"/>
<circle cx="311.25" cy="96.19525317323783" r="2" fill="#9ca3af" opacity="0.16"/>
<circle cx="312.6333333333333" cy="117.77806250215065" r="2" fill="#9ca3af" opacity="0.16"/>
<circle cx="314.01666666666665" cy="90.93999545389524" r="2" fill="#9ca3af" opacity="0.16"/>
<circle cx="315.4" cy="95.4544849181623" r="2" fill="#9ca3af" opacity="0.16"/>
<circle cx="316.78333333333336" cy="108.24931826730736" r="2" fill="#9ca3af" opacity="0.16"/>
<circle cx="318.1666666666667" cy="157.08663820284897" r="2" fill="#9ca3af" opacity="0.16"/>
<circle cx="319.55" cy="166.59170562316487" r="2" fill="#9ca3af" opacity="0.16"/>
<circle cx="320.93333333333334" cy="92.49280224485999" r="2" fill="#9ca3af" opacity="0.16"/>
<circle cx="322.31666666666666" cy="91.34549790477095" r="2" fill="#9ca3af" opacity="0.16"/>
<circle cx="323.7" cy="124.16202087446064" r="2" fill="#9ca3af" opacity="0.16"/>
<circle cx="326.46666666666664" cy="91.86938414522687" r="2" fill="#9ca3af" opacity="0.16"/>
<circle cx="327.85" cy="91.4824957392001" r="2" fill="#9ca3af" opacity="0.16"/>
<circle cx="329.23333333333335" cy="137.46225432869994" r="2" fill="#9ca3af" opacity="0.16"/>
<circle cx="330.6166666666667" cy="85.44986811562161" r="2" fill="#9ca3af" opacity="0.16"/>
<circle cx="332" cy="126.0045202512638" r="2" fill="#9ca3af" opacity="0.16"/>
<circle cx="2.7666666666666666" cy="203.30904740836988" r="3.4" fill="#9ca3af" opacity="0.9" stroke="#1f2937" stroke-width="0.5"/>
<circle cx="4.15" cy="183.82498351861622" r="3.4" fill="#9ca3af" opacity="0.9" stroke="#1f2937" stroke-width="0.5"/>
<circle cx="13.833333333333334" cy="180.7290543476679" r="3.4" fill="#9ca3af" opacity="0.9" stroke="#1f2937" stroke-width="0.5"/>
<circle cx="44.266666666666666" cy="170.76827575260734" r="3.4" fill="#9ca3af" opacity="0.9" stroke="#1f2937" stroke-width="0.5"/>
<circle cx="45.65" cy="162.469920684946" r="3.4" fill="#9ca3af" opacity="0.9" stroke="#1f2937" stroke-width="0.5"/>
<circle cx="49.8" cy="160.31579908194138" r="3.4" fill="#9ca3af" opacity="0.9" stroke="#1f2937" stroke-width="0.5"/>
<circle cx="59.483333333333334" cy="154.0778835306452" r="3.4" fill="#9ca3af" opacity="0.9" stroke="#1f2937" stroke-width="0.5"/>
<circle cx="70.55" cy="149.35311573066" r="3.4" fill="#9ca3af" opacity="0.9" stroke="#1f2937" stroke-width="0.5"/>
<circle cx="99.6" cy="149.18302230400636" r="3.4" fill="#9ca3af" opacity="0.9" stroke="#1f2937" stroke-width="0.5"/>
<circle cx="121.73333333333333" cy="129.66490483086005" r="3.4" fill="#9ca3af" opacity="0.9" stroke="#1f2937" stroke-width="0.5"/>
<circle cx="153.55" cy="120.43460329859782" r="3.4" fill="#9ca3af" opacity="0.9" stroke="#1f2937" stroke-width="0.5"/>
<circle cx="175.68333333333334" cy="118.3665319176378" r="3.4" fill="#9ca3af" opacity="0.9" stroke="#1f2937" stroke-width="0.5"/>
<circle cx="203.35" cy="112.28006082508402" r="3.4" fill="#9ca3af" opacity="0.9" stroke="#1f2937" stroke-width="0.5"/>
<circle cx="204.73333333333332" cy="106.48872191324979" r="3.4" fill="#9ca3af" opacity="0.9" stroke="#1f2937" stroke-width="0.5"/>
<circle cx="249" cy="96.9917010383132" r="3.4" fill="#9ca3af" opacity="0.9" stroke="#1f2937" stroke-width="0.5"/>
<circle cx="269.75" cy="92.82028003477735" r="3.4" fill="#9ca3af" opacity="0.9" stroke="#1f2937" stroke-width="0.5"/>
<circle cx="275.28333333333336" cy="91.25378856475137" r="3.4" fill="#9ca3af" opacity="0.9" stroke="#1f2937" stroke-width="0.5"/>
<circle cx="284.96666666666664" cy="90.91587896466899" r="3.4" fill="#9ca3af" opacity="0.9" stroke="#1f2937" stroke-width="0.5"/>
<circle cx="308.48333333333335" cy="88.8030554458361" r="3.4" fill="#9ca3af" opacity="0.9" stroke="#1f2937" stroke-width="0.5"/>
<circle cx="325.0833333333333" cy="83.40266473267852" r="3.4" fill="#9ca3af" opacity="0.9" stroke="#1f2937" stroke-width="0.5"/>
<polyline points="1.3833333333333333,244.0645767293362 2.7666666666666666,244.0645767293362 2.7666666666666666,203.30904740836988 4.15,203.30904740836988 4.15,183.82498351861622 5.533333333333333,183.82498351861622 6.916666666666667,183.82498351861622 8.3,183.82498351861622 9.683333333333334,183.82498351861622 11.066666666666666,183.82498351861622 12.45,183.82498351861622 13.833333333333334,183.82498351861622 13.833333333333334,180.7290543476679 15.216666666666667,180.7290543476679 16.6,180.7290543476679 17.983333333333334,180.7290543476679 19.366666666666667,180.7290543476679 20.75,180.7290543476679 22.133333333333333,180.7290543476679 23.516666666666666,180.7290543476679 24.9,180.7290543476679 26.283333333333335,180.7290543476679 27.666666666666668,180.7290543476679 29.05,180.7290543476679 30.433333333333334,180.7290543476679 31.816666666666666,180.7290543476679 33.2,180.7290543476679 34.583333333333336,180.7290543476679 35.96666666666667,180.7290543476679 37.35,180.7290543476679 38.733333333333334,180.7290543476679 40.11666666666667,180.7290543476679 41.5,180.7290543476679 42.88333333333333,180.7290543476679 44.266666666666666,180.7290543476679 44.266666666666666,170.76827575260734 45.65,170.76827575260734 45.65,162.469920684946 47.03333333333333,162.469920684946 48.416666666666664,162.469920684946 49.8,162.469920684946 49.8,160.31579908194138 51.18333333333333,160.31579908194138 52.56666666666667,160.31579908194138 53.95,160.31579908194138 55.333333333333336,160.31579908194138 56.71666666666667,160.31579908194138 58.1,160.31579908194138 59.483333333333334,160.31579908194138 59.483333333333334,154.0778835306452 60.86666666666667,154.0778835306452 62.25,154.0778835306452 63.63333333333333,154.0778835306452 65.01666666666667,154.0778835306452 66.4,154.0778835306452 67.78333333333333,154.0778835306452 69.16666666666667,154.0778835306452 70.55,154.0778835306452 70.55,149.35311573066 71.93333333333334,149.35311573066 73.31666666666666,149.35311573066 74.7,149.35311573066 76.08333333333333,149.35311573066 77.46666666666667,149.35311573066 78.85,149.35311573066 80.23333333333333,149.35311573066 81.61666666666666,149.35311573066 83,149.35311573066 84.38333333333334,149.35311573066 85.76666666666667,149.35311573066 87.15,149.35311573066 88.53333333333333,149.35311573066 89.91666666666667,149.35311573066 91.3,149.35311573066 92.68333333333334,149.35311573066 94.06666666666666,149.35311573066 95.45,149.35311573066 96.83333333333333,149.35311573066 98.21666666666667,149.35311573066 99.6,149.35311573066 99.6,149.18302230400636 100.98333333333333,149.18302230400636 102.36666666666666,149.18302230400636 103.75,149.18302230400636 105.13333333333334,149.18302230400636 106.51666666666667,149.18302230400636 107.9,149.18302230400636 109.28333333333333,149.18302230400636 110.66666666666667,149.18302230400636 112.05,149.18302230400636 113.43333333333334,149.18302230400636 114.81666666666666,149.18302230400636 116.2,149.18302230400636 117.58333333333333,149.18302230400636 118.96666666666667,149.18302230400636 120.35,149.18302230400636 121.73333333333333,149.18302230400636 121.73333333333333,129.66490483086005 123.11666666666666,129.66490483086005 124.5,129.66490483086005 125.88333333333334,129.66490483086005 127.26666666666667,129.66490483086005 128.65,129.66490483086005 130.03333333333333,129.66490483086005 131.41666666666666,129.66490483086005 132.8,129.66490483086005 134.18333333333334,129.66490483086005 135.56666666666666,129.66490483086005 136.95,129.66490483086005 138.33333333333334,129.66490483086005 139.71666666666667,129.66490483086005 141.1,129.66490483086005 142.48333333333332,129.66490483086005 143.86666666666667,129.66490483086005 145.25,129.66490483086005 146.63333333333333,129.66490483086005 148.01666666666668,129.66490483086005 149.4,129.66490483086005 150.78333333333333,129.66490483086005 152.16666666666666,129.66490483086005 153.55,129.66490483086005 153.55,120.43460329859782 154.93333333333334,120.43460329859782 156.31666666666666,120.43460329859782 157.7,120.43460329859782 159.08333333333334,120.43460329859782 160.46666666666667,120.43460329859782 161.85,120.43460329859782 163.23333333333332,120.43460329859782 164.61666666666667,120.43460329859782 166,120.43460329859782 167.38333333333333,120.43460329859782 168.76666666666668,120.43460329859782 170.15,120.43460329859782 171.53333333333333,120.43460329859782 172.91666666666666,120.43460329859782 174.3,120.43460329859782 175.68333333333334,120.43460329859782 175.68333333333334,118.3665319176378 177.06666666666666,118.3665319176378 178.45,118.3665319176378 179.83333333333334,118.3665319176378 181.21666666666667,118.3665319176378 182.6,118.3665319176378 183.98333333333332,118.3665319176378 185.36666666666667,118.3665319176378 186.75,118.3665319176378 188.13333333333333,118.3665319176378 189.51666666666668,118.3665319176378 190.9,118.3665319176378 192.28333333333333,118.3665319176378 193.66666666666666,118.3665319176378 195.05,118.3665319176378 196.43333333333334,118.3665319176378 197.81666666666666,118.3665319176378 199.2,118.3665319176378 200.58333333333334,118.3665319176378 201.96666666666667,118.3665319176378 203.35,118.3665319176378 203.35,112.28006082508402 204.73333333333332,112.28006082508402 204.73333333333332,106.48872191324979 206.11666666666667,106.48872191324979 207.5,106.48872191324979 208.88333333333333,106.48872191324979 210.26666666666668,106.48872191324979 211.65,106.48872191324979 213.03333333333333,106.48872191324979 214.41666666666666,106.48872191324979 215.8,106.48872191324979 217.18333333333334,106.48872191324979 218.56666666666666,106.48872191324979 219.95,106.48872191324979 221.33333333333334,106.48872191324979 222.71666666666667,106.48872191324979 224.1,106.48872191324979 225.48333333333332,106.48872191324979 226.86666666666667,106.48872191324979 228.25,106.48872191324979 229.63333333333333,106.48872191324979 231.01666666666668,106.48872191324979 232.4,106.48872191324979 233.78333333333333,106.48872191324979 235.16666666666666,106.48872191324979 236.55,106.48872191324979 237.93333333333334,106.48872191324979 239.31666666666666,106.48872191324979 240.7,106.48872191324979 242.08333333333334,106.48872191324979 243.46666666666667,106.48872191324979 244.85,106.48872191324979 246.23333333333332,106.48872191324979 247.61666666666667,106.48872191324979 249,106.48872191324979 249,96.9917010383132 250.38333333333333,96.9917010383132 251.76666666666668,96.9917010383132 253.15,96.9917010383132 254.53333333333333,96.9917010383132 255.91666666666666,96.9917010383132 257.3,96.9917010383132 258.68333333333334,96.9917010383132 260.06666666666666,96.9917010383132 261.45,96.9917010383132 262.8333333333333,96.9917010383132 264.21666666666664,96.9917010383132 265.6,96.9917010383132 266.98333333333335,96.9917010383132 268.3666666666667,96.9917010383132 269.75,96.9917010383132 269.75,92.82028003477735 271.1333333333333,92.82028003477735 272.51666666666665,92.82028003477735 273.9,92.82028003477735 275.28333333333336,92.82028003477735 275.28333333333336,91.25378856475137 276.6666666666667,91.25378856475137 278.05,91.25378856475137 279.43333333333334,91.25378856475137 280.81666666666666,91.25378856475137 282.2,91.25378856475137 283.5833333333333,91.25378856475137 284.96666666666664,91.25378856475137 284.96666666666664,90.91587896466899 286.35,90.91587896466899 287.73333333333335,90.91587896466899 289.1166666666667,90.91587896466899 290.5,90.91587896466899 291.8833333333333,90.91587896466899 293.26666666666665,90.91587896466899 294.65,90.91587896466899 296.03333333333336,90.91587896466899 297.4166666666667,90.91587896466899 298.8,90.91587896466899 300.18333333333334,90.91587896466899 301.56666666666666,90.91587896466899 302.95,90.91587896466899 304.3333333333333,90.91587896466899 305.71666666666664,90.91587896466899 307.1,90.91587896466899 308.48333333333335,90.91587896466899 308.48333333333335,88.8030554458361 309.8666666666667,88.8030554458361 311.25,88.8030554458361 312.6333333333333,88.8030554458361 314.01666666666665,88.8030554458361 315.4,88.8030554458361 316.78333333333336,88.8030554458361 318.1666666666667,88.8030554458361 319.55,88.8030554458361 320.93333333333334,88.8030554458361 322.31666666666666,88.8030554458361 323.7,88.8030554458361 325.0833333333333,88.8030554458361 325.0833333333333,83.40266473267852 326.46666666666664,83.40266473267852 327.85,83.40266473267852 329.23333333333335,83.40266473267852 330.6166666666667,83.40266473267852 332,83.40266473267852" fill="none" stroke="#9ca3af" stroke-width="2.1"/>
<circle cx="1.3833333333333333" cy="239.3436795070575" r="2" fill="#22c55e" opacity="0.16"/>
<circle cx="6.916666666666667" cy="167.57145629419148" r="2" fill="#22c55e" opacity="0.16"/>
<circle cx="9.683333333333334" cy="183.1508875128194" r="2" fill="#22c55e" opacity="0.16"/>
<circle cx="11.066666666666666" cy="154.99398965510483" r="2" fill="#22c55e" opacity="0.16"/>
<circle cx="13.833333333333334" cy="125.73436737647707" r="2" fill="#22c55e" opacity="0.16"/>
<circle cx="17.983333333333334" cy="124.79708567001282" r="2" fill="#22c55e" opacity="0.16"/>
<circle cx="19.366666666666667" cy="137.5202622412613" r="2" fill="#22c55e" opacity="0.16"/>
<circle cx="20.75" cy="138.95804733300378" r="2" fill="#22c55e" opacity="0.16"/>
<circle cx="22.133333333333333" cy="128.32791308234113" r="2" fill="#22c55e" opacity="0.16"/>
<circle cx="23.516666666666666" cy="153.2363864321193" r="2" fill="#22c55e" opacity="0.16"/>
<circle cx="24.9" cy="132.9404591677698" r="2" fill="#22c55e" opacity="0.16"/>
<circle cx="31.816666666666666" cy="122.07723085732947" r="2" fill="#22c55e" opacity="0.16"/>
<circle cx="33.2" cy="102.80671819679489" r="2" fill="#22c55e" opacity="0.16"/>
<circle cx="34.583333333333336" cy="111.14854733783065" r="2" fill="#22c55e" opacity="0.16"/>
<circle cx="37.35" cy="108.76427702472378" r="2" fill="#22c55e" opacity="0.16"/>
<circle cx="40.11666666666667" cy="72.3553061665771" r="2" fill="#22c55e" opacity="0.16"/>
<circle cx="44.266666666666666" cy="110.07233603906886" r="2" fill="#22c55e" opacity="0.16"/>
<circle cx="45.65" cy="51.92416355055174" r="2" fill="#22c55e" opacity="0.16"/>
<circle cx="47.03333333333333" cy="91.73574274914712" r="2" fill="#22c55e" opacity="0.16"/>
<circle cx="48.416666666666664" cy="80.11808699554834" r="2" fill="#22c55e" opacity="0.16"/>
<circle cx="51.18333333333333" cy="65.46384138462037" r="2" fill="#22c55e" opacity="0.16"/>
<circle cx="52.56666666666667" cy="57.76986980650984" r="2" fill="#22c55e" opacity="0.16"/>
<circle cx="55.333333333333336" cy="105.69086835234279" r="2" fill="#22c55e" opacity="0.16"/>
<circle cx="56.71666666666667" cy="64.0252503435958" r="2" fill="#22c55e" opacity="0.16"/>
<circle cx="58.1" cy="56.35498660633201" r="2" fill="#22c55e" opacity="0.16"/>
<circle cx="59.483333333333334" cy="49.095553587161014" r="2" fill="#22c55e" opacity="0.16"/>
<circle cx="60.86666666666667" cy="71.72479900699847" r="2" fill="#22c55e" opacity="0.16"/>
<circle cx="62.25" cy="93.44147481214192" r="2" fill="#22c55e" opacity="0.16"/>
<circle cx="63.63333333333333" cy="99.42100342142989" r="2" fill="#22c55e" opacity="0.16"/>
<circle cx="65.01666666666667" cy="61.31306127822232" r="2" fill="#22c55e" opacity="0.16"/>
<circle cx="66.4" cy="67.418540838529" r="2" fill="#22c55e" opacity="0.16"/>
<circle cx="67.78333333333333" cy="52.91280044617605" r="2" fill="#22c55e" opacity="0.16"/>
<circle cx="69.16666666666667" cy="75.22565926902111" r="2" fill="#22c55e" opacity="0.16"/>
<circle cx="70.55" cy="44.80305779136629" r="2" fill="#22c55e" opacity="0.16"/>
<circle cx="71.93333333333334" cy="53.270980166555546" r="2" fill="#22c55e" opacity="0.16"/>
<circle cx="74.7" cy="81.7203129787154" r="2" fill="#22c55e" opacity="0.16"/>
<circle cx="77.46666666666667" cy="88.24899501024144" r="2" fill="#22c55e" opacity="0.16"/>
<circle cx="78.85" cy="85.87928060968753" r="2" fill="#22c55e" opacity="0.16"/>
<circle cx="80.23333333333333" cy="29.8510378630624" r="2" fill="#22c55e" opacity="0.16"/>
<circle cx="81.61666666666666" cy="56.308137106197115" r="2" fill="#22c55e" opacity="0.16"/>
<circle cx="83" cy="67.18758222092153" r="2" fill="#22c55e" opacity="0.16"/>
<circle cx="84.38333333333334" cy="90.68136229432187" r="2" fill="#22c55e" opacity="0.16"/>
<circle cx="85.76666666666667" cy="30.83332155314073" r="2" fill="#22c55e" opacity="0.16"/>
<circle cx="87.15" cy="56.13803538463827" r="2" fill="#22c55e" opacity="0.16"/>
<circle cx="88.53333333333333" cy="41.466355189046396" r="2" fill="#22c55e" opacity="0.16"/>
<circle cx="89.91666666666667" cy="86.82451312981652" r="2" fill="#22c55e" opacity="0.16"/>
<circle cx="91.3" cy="49.5829241102883" r="2" fill="#22c55e" opacity="0.16"/>
<circle cx="92.68333333333334" cy="66.34536586672978" r="2" fill="#22c55e" opacity="0.16"/>
<circle cx="94.06666666666666" cy="61.04447382666987" r="2" fill="#22c55e" opacity="0.16"/>
<circle cx="95.45" cy="56.75727564727236" r="2" fill="#22c55e" opacity="0.16"/>
<circle cx="96.83333333333333" cy="42.237513812835225" r="2" fill="#22c55e" opacity="0.16"/>
<circle cx="98.21666666666667" cy="78.8746476421543" r="2" fill="#22c55e" opacity="0.16"/>
<circle cx="99.6" cy="54.233414384207194" r="2" fill="#22c55e" opacity="0.16"/>
<circle cx="100.98333333333333" cy="63.93687991893696" r="2" fill="#22c55e" opacity="0.16"/>
<circle cx="102.36666666666666" cy="64.30249641263735" r="2" fill="#22c55e" opacity="0.16"/>
<circle cx="103.75" cy="53.338507125272045" r="2" fill="#22c55e" opacity="0.16"/>
<circle cx="105.13333333333334" cy="43.45589550530961" r="2" fill="#22c55e" opacity="0.16"/>
<circle cx="106.51666666666667" cy="77.00211515705428" r="2" fill="#22c55e" opacity="0.16"/>
<circle cx="107.9" cy="29.128701422239686" r="2" fill="#22c55e" opacity="0.16"/>
<circle cx="109.28333333333333" cy="26.818273391142608" r="2" fill="#22c55e" opacity="0.16"/>
<circle cx="2.7666666666666666" cy="187.27616542152748" r="3.4" fill="#22c55e" opacity="0.9" stroke="#1f2937" stroke-width="0.5"/>
<circle cx="4.15" cy="181.21834684279483" r="3.4" fill="#22c55e" opacity="0.9" stroke="#1f2937" stroke-width="0.5"/>
<circle cx="5.533333333333333" cy="153.01289813053674" r="3.4" fill="#22c55e" opacity="0.9" stroke="#1f2937" stroke-width="0.5"/>
<circle cx="8.3" cy="148.70304706389751" r="3.4" fill="#22c55e" opacity="0.9" stroke="#1f2937" stroke-width="0.5"/>
<circle cx="12.45" cy="124.53441856363374" r="3.4" fill="#22c55e" opacity="0.9" stroke="#1f2937" stroke-width="0.5"/>
<circle cx="15.216666666666667" cy="121.25678361237462" r="3.4" fill="#22c55e" opacity="0.9" stroke="#1f2937" stroke-width="0.5"/>
<circle cx="16.6" cy="117.0662296925847" r="3.4" fill="#22c55e" opacity="0.9" stroke="#1f2937" stroke-width="0.5"/>
<circle cx="26.283333333333335" cy="98.83707591130856" r="3.4" fill="#22c55e" opacity="0.9" stroke="#1f2937" stroke-width="0.5"/>
<circle cx="27.666666666666668" cy="92.23394219410503" r="3.4" fill="#22c55e" opacity="0.9" stroke="#1f2937" stroke-width="0.5"/>
<circle cx="29.05" cy="88.01365880357865" r="3.4" fill="#22c55e" opacity="0.9" stroke="#1f2937" stroke-width="0.5"/>
<circle cx="30.433333333333334" cy="79.01500933434936" r="3.4" fill="#22c55e" opacity="0.9" stroke="#1f2937" stroke-width="0.5"/>
<circle cx="35.96666666666667" cy="70.18841348771863" r="3.4" fill="#22c55e" opacity="0.9" stroke="#1f2937" stroke-width="0.5"/>
<circle cx="38.733333333333334" cy="57.85547084936843" r="3.4" fill="#22c55e" opacity="0.9" stroke="#1f2937" stroke-width="0.5"/>
<circle cx="41.5" cy="56.23683984564333" r="3.4" fill="#22c55e" opacity="0.9" stroke="#1f2937" stroke-width="0.5"/>
<circle cx="42.88333333333333" cy="48.42044993502521" r="3.4" fill="#22c55e" opacity="0.9" stroke="#1f2937" stroke-width="0.5"/>
<circle cx="49.8" cy="43.7665847379807" r="3.4" fill="#22c55e" opacity="0.9" stroke="#1f2937" stroke-width="0.5"/>
<circle cx="53.95" cy="38.45896187203358" r="3.4" fill="#22c55e" opacity="0.9" stroke="#1f2937" stroke-width="0.5"/>
<circle cx="73.31666666666666" cy="25.683018052415775" r="3.4" fill="#22c55e" opacity="0.9" stroke="#1f2937" stroke-width="0.5"/>
<circle cx="76.08333333333333" cy="24.621841173444935" r="3.4" fill="#22c55e" opacity="0.9" stroke="#1f2937" stroke-width="0.5"/>
<circle cx="110.66666666666667" cy="15.13333333333333" r="3.4" fill="#22c55e" opacity="0.9" stroke="#1f2937" stroke-width="0.5"/>
<polyline points="1.3833333333333333,230.29964580689196 2.7666666666666666,230.29964580689196 2.7666666666666666,187.27616542152748 4.15,187.27616542152748 4.15,181.21834684279483 5.533333333333333,181.21834684279483 5.533333333333333,153.01289813053674 6.916666666666667,153.01289813053674 8.3,153.01289813053674 8.3,148.70304706389751 9.683333333333334,148.70304706389751 11.066666666666666,148.70304706389751 12.45,148.70304706389751 12.45,124.53441856363374 13.833333333333334,124.53441856363374 15.216666666666667,124.53441856363374 15.216666666666667,121.25678361237462 16.6,121.25678361237462 16.6,117.0662296925847 17.983333333333334,117.0662296925847 19.366666666666667,117.0662296925847 20.75,117.0662296925847 22.133333333333333,117.0662296925847 23.516666666666666,117.0662296925847 24.9,117.0662296925847 26.283333333333335,117.0662296925847 26.283333333333335,98.83707591130856 27.666666666666668,98.83707591130856 27.666666666666668,92.23394219410503 29.05,92.23394219410503 29.05,88.01365880357865 30.433333333333334,88.01365880357865 30.433333333333334,79.01500933434936 31.816666666666666,79.01500933434936 33.2,79.01500933434936 34.583333333333336,79.01500933434936 35.96666666666667,79.01500933434936 35.96666666666667,70.18841348771863 37.35,70.18841348771863 38.733333333333334,70.18841348771863 38.733333333333334,57.85547084936843 40.11666666666667,57.85547084936843 41.5,57.85547084936843 41.5,56.23683984564333 42.88333333333333,56.23683984564333 42.88333333333333,48.42044993502521 44.266666666666666,48.42044993502521 45.65,48.42044993502521 47.03333333333333,48.42044993502521 48.416666666666664,48.42044993502521 49.8,48.42044993502521 49.8,43.7665847379807 51.18333333333333,43.7665847379807 52.56666666666667,43.7665847379807 53.95,43.7665847379807 53.95,38.45896187203358 55.333333333333336,38.45896187203358 56.71666666666667,38.45896187203358 58.1,38.45896187203358 59.483333333333334,38.45896187203358 60.86666666666667,38.45896187203358 62.25,38.45896187203358 63.63333333333333,38.45896187203358 65.01666666666667,38.45896187203358 66.4,38.45896187203358 67.78333333333333,38.45896187203358 69.16666666666667,38.45896187203358 70.55,38.45896187203358 71.93333333333334,38.45896187203358 73.31666666666666,38.45896187203358 73.31666666666666,25.683018052415775 74.7,25.683018052415775 76.08333333333333,25.683018052415775 76.08333333333333,24.621841173444935 77.46666666666667,24.621841173444935 78.85,24.621841173444935 80.23333333333333,24.621841173444935 81.61666666666666,24.621841173444935 83,24.621841173444935 84.38333333333334,24.621841173444935 85.76666666666667,24.621841173444935 87.15,24.621841173444935 88.53333333333333,24.621841173444935 89.91666666666667,24.621841173444935 91.3,24.621841173444935 92.68333333333334,24.621841173444935 94.06666666666666,24.621841173444935 95.45,24.621841173444935 96.83333333333333,24.621841173444935 98.21666666666667,24.621841173444935 99.6,24.621841173444935 100.98333333333333,24.621841173444935 102.36666666666666,24.621841173444935 103.75,24.621841173444935 105.13333333333334,24.621841173444935 106.51666666666667,24.621841173444935 107.9,24.621841173444935 109.28333333333333,24.621841173444935 110.66666666666667,24.621841173444935 110.66666666666667,15.13333333333333" fill="none" stroke="#22c55e" stroke-width="2.1"/>
<line x1="0" x2="332" y1="204.3" y2="204.3" stroke="#22c55e" stroke-opacity="0.12" stroke-width="1" stroke-dasharray="2,4"/>
<line x1="0" x2="332" y1="151.33333333333334" y2="151.33333333333334" stroke="#22c55e" stroke-opacity="0.12" stroke-width="1" stroke-dasharray="2,4"/>
<line x1="0" x2="332" y1="75.66666666666667" y2="75.66666666666667" stroke="#22c55e" stroke-opacity="0.12" stroke-width="1" stroke-dasharray="2,4"/>
<line x1="0" x2="332" y1="15.13333333333333" y2="15.13333333333333" stroke="#22c55e" stroke-opacity="0.12" stroke-width="1" stroke-dasharray="2,4"/>
<line x1="0" x2="332" y1="227" y2="227" stroke="#333333" stroke-width="0.6"/>
<line x1="0" x2="0" y1="227" y2="231" stroke="#333333" stroke-width="0.6"/>
<text x="0" y="243" text-anchor="middle" font-size="9" fill="#333333">0</text>
<line x1="69.16666666666667" x2="69.16666666666667" y1="227" y2="231" stroke="#333333" stroke-width="0.6"/>
<text x="69.16666666666667" y="243" text-anchor="middle" font-size="9" fill="#333333">50</text>
<line x1="138.33333333333334" x2="138.33333333333334" y1="227" y2="231" stroke="#333333" stroke-width="0.6"/>
<text x="138.33333333333334" y="243" text-anchor="middle" font-size="9" fill="#333333">100</text>
<line x1="207.5" x2="207.5" y1="227" y2="231" stroke="#333333" stroke-width="0.6"/>
<text x="207.5" y="243" text-anchor="middle" font-size="9" fill="#333333">150</text>
<line x1="276.6666666666667" x2="276.6666666666667" y1="227" y2="231" stroke="#333333" stroke-width="0.6"/>
<text x="276.6666666666667" y="243" text-anchor="middle" font-size="9" fill="#333333">200</text>
<text x="166" y="265" text-anchor="middle" font-size="11" fill="#333333">Iteration</text>
<line x1="0" x2="0" y1="0" y2="227" stroke="#333333" stroke-width="0.6"/>
<line x1="-4" x2="0" y1="227" y2="227" stroke="#333333" stroke-width="0.6"/>
<text x="-8" y="230" text-anchor="end" font-size="9" fill="#333333">700</text>
<line x1="-4" x2="0" y1="189.16666666666669" y2="189.16666666666669" stroke="#333333" stroke-width="0.6"/>
<text x="-8" y="192.16666666666669" text-anchor="end" font-size="9" fill="#333333">800</text>
<line x1="-4" x2="0" y1="151.33333333333334" y2="151.33333333333334" stroke="#333333" stroke-width="0.6"/>
<text x="-8" y="154.33333333333334" text-anchor="end" font-size="9" fill="#333333">900</text>
<line x1="-4" x2="0" y1="113.5" y2="113.5" stroke="#333333" stroke-width="0.6"/>
<text x="-8" y="116.5" text-anchor="end" font-size="9" fill="#333333">1000</text>
<line x1="-4" x2="0" y1="75.66666666666667" y2="75.66666666666667" stroke="#333333" stroke-width="0.6"/>
<text x="-8" y="78.66666666666667" text-anchor="end" font-size="9" fill="#333333">1100</text>
<line x1="-4" x2="0" y1="37.83333333333332" y2="37.83333333333332" stroke="#333333" stroke-width="0.6"/>
<text x="-8" y="40.83333333333332" text-anchor="end" font-size="9" fill="#333333">1200</text>
<line x1="-4" x2="0" y1="0" y2="0" stroke="#333333" stroke-width="0.6"/>
<text x="-8" y="3" text-anchor="end" font-size="9" fill="#333333">1300</text>
<text transform="rotate(-90)" x="-113.5" y="-50" text-anchor="middle" font-size="11" fill="#333333">TFLOPS (E4M3)</text>
<rect x="340" y="0" width="148" height="42" rx="6" fill="#f8fafc" opacity="0.82"/>
<circle cx="350" cy="12" r="4" fill="#9ca3af"/>
<text x="358" y="15" font-size="9" fill="#333333">Random (no pruning/ranking)</text>
<circle cx="350" cy="28" r="4" fill="#22c55e"/>
<text x="358" y="31" font-size="9" fill="#333333">Model-guided</text>
<circle cx="110.66666666666667" cy="15.13333333333333" r="4.2" fill="#22c55e" stroke="#ffffff" stroke-width="1.4"/>
<text x="110.66666666666667" y="5.133333333333329" text-anchor="middle" font-size="9" font-weight="700" fill="#333333">1260</text>
</g>
</svg>