<svg xmlns="http://www.w3.org/2000/svg" width="560" height="300" font-family="Inter,sans-serif">
<g transform="translate(68,25)">
<line x1="0" x2="332" y1="227" y2="227" stroke="#e9ecef" stroke-width="0.5"/>
<line x1="0" x2="332" y1="189.16666666666669" y2="189.16666666666669" stroke="#e9ecef" stroke-width="0.5"/>
<line x1="0" x2="332" y1="151.33333333333334" y2="151.33333333333334" stroke="#e9ecef" stroke-width="0.5"/>
<line x1="0" x2="332" y1="113.5" y2="113.5" stroke="#e9ecef" stroke-width="0.5"/>
<line x1="0" x2="332" y1="75.66666666666667" y2="75.66666666666667" stroke="#e9ecef" stroke-width="0.5"/>
<line x1="0" x2="332" y1="37.83333333333332" y2="37.83333333333332" stroke="#e9ecef" stroke-width="0.5"/>
<line x1="0" x2="332" y1="0" y2="0" stroke="#e9ecef" stroke-width="0.5"/>
<circle cx="8.853333333333333" cy="205.7007692283582" r="2" fill="#bbbbbb" opacity="0.18"/>
<circle cx="11.066666666666666" cy="193.54778988684924" r="2" fill="#bbbbbb" opacity="0.18"/>
<circle cx="13.28" cy="193.9504551927604" r="2" fill="#bbbbbb" opacity="0.18"/>
<circle cx="15.493333333333334" cy="197.58014566368874" r="2" fill="#bbbbbb" opacity="0.18"/>
<circle cx="17.706666666666667" cy="184.41735719872767" r="2" fill="#bbbbbb" opacity="0.18"/>
<circle cx="24.346666666666668" cy="187.1358687909768" r="2" fill="#bbbbbb" opacity="0.18"/>
<circle cx="26.56" cy="180.41295882263455" r="2" fill="#bbbbbb" opacity="0.18"/>
<circle cx="28.773333333333333" cy="174.98234075990285" r="2" fill="#bbbbbb" opacity="0.18"/>
<circle cx="30.986666666666668" cy="194.4566234251638" r="2" fill="#bbbbbb" opacity="0.18"/>
<circle cx="33.2" cy="177.62811576195526" r="2" fill="#bbbbbb" opacity="0.18"/>
<circle cx="35.413333333333334" cy="178.07162077728012" r="2" fill="#bbbbbb" opacity="0.18"/>
<circle cx="37.626666666666665" cy="191.40443717249013" r="2" fill="#bbbbbb" opacity="0.18"/>
<circle cx="39.84" cy="194.419355163752" r="2" fill="#bbbbbb" opacity="0.18"/>
<circle cx="44.266666666666666" cy="196.63578180608104" r="2" fill="#bbbbbb" opacity="0.18"/>
<circle cx="46.48" cy="179.3256507650742" r="2" fill="#bbbbbb" opacity="0.18"/>
<circle cx="48.693333333333335" cy="186.15885961748424" r="2" fill="#bbbbbb" opacity="0.18"/>
<circle cx="53.12" cy="188.94944787953577" r="2" fill="#bbbbbb" opacity="0.18"/>
<circle cx="55.333333333333336" cy="179.22306626739703" r="2" fill="#bbbbbb" opacity="0.18"/>
<circle cx="59.76" cy="160.20211229845663" r="2" fill="#bbbbbb" opacity="0.18"/>
<circle cx="64.18666666666667" cy="174.39905422345382" r="2" fill="#bbbbbb" opacity="0.18"/>
<circle cx="66.4" cy="177.7471221683859" r="2" fill="#bbbbbb" opacity="0.18"/>
<circle cx="75.25333333333333" cy="147.8481292086605" r="2" fill="#bbbbbb" opacity="0.18"/>
<circle cx="77.46666666666667" cy="144.1836230498307" r="2" fill="#bbbbbb" opacity="0.18"/>
<circle cx="81.89333333333333" cy="169.64255545042113" r="2" fill="#bbbbbb" opacity="0.18"/>
<circle cx="86.32" cy="140.75167887388895" r="2" fill="#bbbbbb" opacity="0.18"/>
<circle cx="88.53333333333333" cy="170.61273563807782" r="2" fill="#bbbbbb" opacity="0.18"/>
<circle cx="90.74666666666667" cy="161.41386417211436" r="2" fill="#bbbbbb" opacity="0.18"/>
<circle cx="97.38666666666667" cy="139.54896915011201" r="2" fill="#bbbbbb" opacity="0.18"/>
<circle cx="99.6" cy="129.3396901095887" r="2" fill="#bbbbbb" opacity="0.18"/>
<circle cx="101.81333333333333" cy="159.57142590614117" r="2" fill="#bbbbbb" opacity="0.18"/>
<circle cx="104.02666666666667" cy="158.17880095736837" r="2" fill="#bbbbbb" opacity="0.18"/>
<circle cx="106.24" cy="151.41266442683275" r="2" fill="#bbbbbb" opacity="0.18"/>
<circle cx="108.45333333333333" cy="138.36901462175365" r="2" fill="#bbbbbb" opacity="0.18"/>
<circle cx="110.66666666666667" cy="139.68351503142134" r="2" fill="#bbbbbb" opacity="0.18"/>
<circle cx="115.09333333333333" cy="146.48762298448156" r="2" fill="#bbbbbb" opacity="0.18"/>
<circle cx="117.30666666666667" cy="160.36865989159932" r="2" fill="#bbbbbb" opacity="0.18"/>
<circle cx="119.52" cy="149.94620528814517" r="2" fill="#bbbbbb" opacity="0.18"/>
<circle cx="121.73333333333333" cy="155.3730539711315" r="2" fill="#bbbbbb" opacity="0.18"/>
<circle cx="123.94666666666667" cy="122.91134719082092" r="2" fill="#bbbbbb" opacity="0.18"/>
<circle cx="126.16" cy="139.25389652895316" r="2" fill="#bbbbbb" opacity="0.18"/>
<circle cx="128.37333333333333" cy="161.0971640046588" r="2" fill="#bbbbbb" opacity="0.18"/>
<circle cx="132.8" cy="155.71605509350516" r="2" fill="#bbbbbb" opacity="0.18"/>
<circle cx="135.01333333333332" cy="130.3634381275581" r="2" fill="#bbbbbb" opacity="0.18"/>
<circle cx="137.22666666666666" cy="135.2217005663444" r="2" fill="#bbbbbb" opacity="0.18"/>
<circle cx="139.44" cy="142.3440614420351" r="2" fill="#bbbbbb" opacity="0.18"/>
<circle cx="141.65333333333334" cy="141.93184005695173" r="2" fill="#bbbbbb" opacity="0.18"/>
<circle cx="143.86666666666667" cy="140.24777544542138" r="2" fill="#bbbbbb" opacity="0.18"/>
<circle cx="146.08" cy="128.19532511696494" r="2" fill="#bbbbbb" opacity="0.18"/>
<circle cx="148.29333333333332" cy="142.02233771763213" r="2" fill="#bbbbbb" opacity="0.18"/>
<circle cx="150.50666666666666" cy="141.13632007365942" r="2" fill="#bbbbbb" opacity="0.18"/>
<circle cx="152.72" cy="132.5720442700042" r="2" fill="#bbbbbb" opacity="0.18"/>
<circle cx="154.93333333333334" cy="122.09112895293738" r="2" fill="#bbbbbb" opacity="0.18"/>
<circle cx="161.57333333333332" cy="149.9225507165845" r="2" fill="#bbbbbb" opacity="0.18"/>
<circle cx="163.78666666666666" cy="115.49232132560482" r="2" fill="#bbbbbb" opacity="0.18"/>
<circle cx="166" cy="138.07228261005451" r="2" fill="#bbbbbb" opacity="0.18"/>
<circle cx="168.21333333333334" cy="120.17415086639406" r="2" fill="#bbbbbb" opacity="0.18"/>
<circle cx="172.64" cy="135.04761962524253" r="2" fill="#bbbbbb" opacity="0.18"/>
<circle cx="174.85333333333332" cy="124.73501520525267" r="2" fill="#bbbbbb" opacity="0.18"/>
<circle cx="177.06666666666666" cy="117.49254801940837" r="2" fill="#bbbbbb" opacity="0.18"/>
<circle cx="179.28" cy="146.3328502397755" r="2" fill="#bbbbbb" opacity="0.18"/>
<circle cx="181.49333333333334" cy="123.47519992680438" r="2" fill="#bbbbbb" opacity="0.18"/>
<circle cx="183.70666666666668" cy="139.28689229971448" r="2" fill="#bbbbbb" opacity="0.18"/>
<circle cx="185.92" cy="117.0648738343299" r="2" fill="#bbbbbb" opacity="0.18"/>
<circle cx="188.13333333333333" cy="125.1398999206673" r="2" fill="#bbbbbb" opacity="0.18"/>
<circle cx="190.34666666666666" cy="122.77649454758294" r="2" fill="#bbbbbb" opacity="0.18"/>
<circle cx="192.56" cy="139.06240428863308" r="2" fill="#bbbbbb" opacity="0.18"/>
<circle cx="196.98666666666668" cy="117.09038519148281" r="2" fill="#bbbbbb" opacity="0.18"/>
<circle cx="199.2" cy="139.38965999383507" r="2" fill="#bbbbbb" opacity="0.18"/>
<circle cx="201.41333333333333" cy="123.38437923932263" r="2" fill="#bbbbbb" opacity="0.18"/>
<circle cx="203.62666666666667" cy="116.78689564668609" r="2" fill="#bbbbbb" opacity="0.18"/>
<circle cx="205.84" cy="130.69418107796685" r="2" fill="#bbbbbb" opacity="0.18"/>
<circle cx="208.05333333333334" cy="111.14001365660326" r="2" fill="#bbbbbb" opacity="0.18"/>
<circle cx="210.26666666666668" cy="121.03007859890576" r="2" fill="#bbbbbb" opacity="0.18"/>
<circle cx="212.48" cy="128.1494056692407" r="2" fill="#bbbbbb" opacity="0.18"/>
<circle cx="214.69333333333333" cy="128.55797408735557" r="2" fill="#bbbbbb" opacity="0.18"/>
<circle cx="216.90666666666667" cy="127.87954303709036" r="2" fill="#bbbbbb" opacity="0.18"/>
<circle cx="219.12" cy="132.77743897269508" r="2" fill="#bbbbbb" opacity="0.18"/>
<circle cx="221.33333333333334" cy="123.71284314274013" r="2" fill="#bbbbbb" opacity="0.18"/>
<circle cx="223.54666666666665" cy="131.82531377703418" r="2" fill="#bbbbbb" opacity="0.18"/>
<circle cx="225.76" cy="127.019789962347" r="2" fill="#bbbbbb" opacity="0.18"/>
<circle cx="227.97333333333333" cy="124.65217111623308" r="2" fill="#bbbbbb" opacity="0.18"/>
<circle cx="230.18666666666667" cy="122.84609163273414" r="2" fill="#bbbbbb" opacity="0.18"/>
<circle cx="232.4" cy="122.77108118907167" r="2" fill="#bbbbbb" opacity="0.18"/>
<circle cx="234.61333333333334" cy="135.1079484703461" r="2" fill="#bbbbbb" opacity="0.18"/>
<circle cx="239.04" cy="125.61541621145065" r="2" fill="#bbbbbb" opacity="0.18"/>
<circle cx="241.25333333333333" cy="109.39687280402154" r="2" fill="#bbbbbb" opacity="0.18"/>
<circle cx="243.46666666666667" cy="101.98100536153815" r="2" fill="#bbbbbb" opacity="0.18"/>
<circle cx="247.89333333333335" cy="129.01520553505313" r="2" fill="#bbbbbb" opacity="0.18"/>
<circle cx="250.10666666666665" cy="105.38682846101081" r="2" fill="#bbbbbb" opacity="0.18"/>
<circle cx="252.32" cy="122.01827420593506" r="2" fill="#bbbbbb" opacity="0.18"/>
<circle cx="254.53333333333333" cy="95.96099676409912" r="2" fill="#bbbbbb" opacity="0.18"/>
<circle cx="256.74666666666667" cy="96.99488304718618" r="2" fill="#bbbbbb" opacity="0.18"/>
<circle cx="258.96" cy="107.66384235914987" r="2" fill="#bbbbbb" opacity="0.18"/>
<circle cx="261.17333333333335" cy="124.5200642537344" r="2" fill="#bbbbbb" opacity="0.18"/>
<circle cx="263.38666666666666" cy="120.10044772213277" r="2" fill="#bbbbbb" opacity="0.18"/>
<circle cx="265.6" cy="98.05951038845195" r="2" fill="#bbbbbb" opacity="0.18"/>
<circle cx="267.81333333333333" cy="121.05074930134849" r="2" fill="#bbbbbb" opacity="0.18"/>
<circle cx="270.02666666666664" cy="126.08621758069428" r="2" fill="#bbbbbb" opacity="0.18"/>
<circle cx="272.24" cy="123.40396454492668" r="2" fill="#bbbbbb" opacity="0.18"/>
<circle cx="274.4533333333333" cy="108.78170970130653" r="2" fill="#bbbbbb" opacity="0.18"/>
<circle cx="276.6666666666667" cy="100.55751865970221" r="2" fill="#bbbbbb" opacity="0.18"/>
<circle cx="278.88" cy="129.10332106944276" r="2" fill="#bbbbbb" opacity="0.18"/>
<circle cx="283.3066666666667" cy="118.85735851609058" r="2" fill="#bbbbbb" opacity="0.18"/>
<circle cx="285.52" cy="96.29583991023412" r="2" fill="#bbbbbb" opacity="0.18"/>
<circle cx="287.73333333333335" cy="113.44621435542072" r="2" fill="#bbbbbb" opacity="0.18"/>
<circle cx="289.94666666666666" cy="97.63022298748649" r="2" fill="#bbbbbb" opacity="0.18"/>
<circle cx="292.16" cy="94.44985863265404" r="2" fill="#bbbbbb" opacity="0.18"/>
<circle cx="294.37333333333333" cy="113.59815952309336" r="2" fill="#bbbbbb" opacity="0.18"/>
<circle cx="296.58666666666664" cy="103.14321413275358" r="2" fill="#bbbbbb" opacity="0.18"/>
<circle cx="298.8" cy="122.21004494378275" r="2" fill="#bbbbbb" opacity="0.18"/>
<circle cx="301.0133333333333" cy="114.38268621231194" r="2" fill="#bbbbbb" opacity="0.18"/>
<circle cx="303.2266666666667" cy="115.98350203945343" r="2" fill="#bbbbbb" opacity="0.18"/>
<circle cx="305.44" cy="126.57413368015416" r="2" fill="#bbbbbb" opacity="0.18"/>
<circle cx="307.6533333333333" cy="104.92922880563984" r="2" fill="#bbbbbb" opacity="0.18"/>
<circle cx="309.8666666666667" cy="116.36433703013385" r="2" fill="#bbbbbb" opacity="0.18"/>
<circle cx="2.2133333333333334" cy="208.08333333333331" r="3.5" fill="#bbbbbb" opacity="0.85" stroke="#264653" stroke-width="0.5"/>
<circle cx="4.426666666666667" cy="188.75714026877347" r="3.5" fill="#bbbbbb" opacity="0.85" stroke="#264653" stroke-width="0.5"/>
<circle cx="6.64" cy="177.68656762430842" r="3.5" fill="#bbbbbb" opacity="0.85" stroke="#264653" stroke-width="0.5"/>
<circle cx="19.92" cy="174.35893778601562" r="3.5" fill="#bbbbbb" opacity="0.85" stroke="#264653" stroke-width="0.5"/>
<circle cx="22.133333333333333" cy="168.37272384745185" r="3.5" fill="#bbbbbb" opacity="0.85" stroke="#264653" stroke-width="0.5"/>
<circle cx="42.053333333333335" cy="165.0562934670139" r="3.5" fill="#bbbbbb" opacity="0.85" stroke="#264653" stroke-width="0.5"/>
<circle cx="50.906666666666666" cy="157.9008553444436" r="3.5" fill="#bbbbbb" opacity="0.85" stroke="#264653" stroke-width="0.5"/>
<circle cx="57.54666666666667" cy="156.9301432486996" r="3.5" fill="#bbbbbb" opacity="0.85" stroke="#264653" stroke-width="0.5"/>
<circle cx="61.973333333333336" cy="155.57144935888826" r="3.5" fill="#bbbbbb" opacity="0.85" stroke="#264653" stroke-width="0.5"/>
<circle cx="68.61333333333333" cy="152.87490231846482" r="3.5" fill="#bbbbbb" opacity="0.85" stroke="#264653" stroke-width="0.5"/>
<circle cx="70.82666666666667" cy="144.32249996753484" r="3.5" fill="#bbbbbb" opacity="0.85" stroke="#264653" stroke-width="0.5"/>
<circle cx="73.04" cy="139.4128664413709" r="3.5" fill="#bbbbbb" opacity="0.85" stroke="#264653" stroke-width="0.5"/>
<circle cx="79.68" cy="136.2979227249451" r="3.5" fill="#bbbbbb" opacity="0.85" stroke="#264653" stroke-width="0.5"/>
<circle cx="84.10666666666667" cy="135.30049944362557" r="3.5" fill="#bbbbbb" opacity="0.85" stroke="#264653" stroke-width="0.5"/>
<circle cx="92.96" cy="134.8711582271248" r="3.5" fill="#bbbbbb" opacity="0.85" stroke="#264653" stroke-width="0.5"/>
<circle cx="95.17333333333333" cy="128.82652933929612" r="3.5" fill="#bbbbbb" opacity="0.85" stroke="#264653" stroke-width="0.5"/>
<circle cx="112.88" cy="122.14992864337172" r="3.5" fill="#bbbbbb" opacity="0.85" stroke="#264653" stroke-width="0.5"/>
<circle cx="130.58666666666667" cy="121.43992891066027" r="3.5" fill="#bbbbbb" opacity="0.85" stroke="#264653" stroke-width="0.5"/>
<circle cx="157.14666666666668" cy="116.06150915792" r="3.5" fill="#bbbbbb" opacity="0.85" stroke="#264653" stroke-width="0.5"/>
<circle cx="159.36" cy="113.53131792072573" r="3.5" fill="#bbbbbb" opacity="0.85" stroke="#264653" stroke-width="0.5"/>
<circle cx="170.42666666666668" cy="112.28377973843054" r="3.5" fill="#bbbbbb" opacity="0.85" stroke="#264653" stroke-width="0.5"/>
<circle cx="194.77333333333334" cy="99.19190324117592" r="3.5" fill="#bbbbbb" opacity="0.85" stroke="#264653" stroke-width="0.5"/>
<circle cx="236.82666666666665" cy="97.06621861547767" r="3.5" fill="#bbbbbb" opacity="0.85" stroke="#264653" stroke-width="0.5"/>
<circle cx="245.68" cy="90.3835773579168" r="3.5" fill="#bbbbbb" opacity="0.85" stroke="#264653" stroke-width="0.5"/>
<circle cx="281.0933333333333" cy="87.61238388998314" r="3.5" fill="#bbbbbb" opacity="0.85" stroke="#264653" stroke-width="0.5"/>
<polyline points="2.2133333333333334,208.08333333333331 4.426666666666667,208.08333333333331 4.426666666666667,188.75714026877347 6.64,188.75714026877347 6.64,177.68656762430842 8.853333333333333,177.68656762430842 11.066666666666666,177.68656762430842 13.28,177.68656762430842 15.493333333333334,177.68656762430842 17.706666666666667,177.68656762430842 19.92,177.68656762430842 19.92,174.35893778601562 22.133333333333333,174.35893778601562 22.133333333333333,168.37272384745185 24.346666666666668,168.37272384745185 26.56,168.37272384745185 28.773333333333333,168.37272384745185 30.986666666666668,168.37272384745185 33.2,168.37272384745185 35.413333333333334,168.37272384745185 37.626666666666665,168.37272384745185 39.84,168.37272384745185 42.053333333333335,168.37272384745185 42.053333333333335,165.0562934670139 44.266666666666666,165.0562934670139 46.48,165.0562934670139 48.693333333333335,165.0562934670139 50.906666666666666,165.0562934670139 50.906666666666666,157.9008553444436 53.12,157.9008553444436 55.333333333333336,157.9008553444436 57.54666666666667,157.9008553444436 57.54666666666667,156.9301432486996 59.76,156.9301432486996 61.973333333333336,156.9301432486996 61.973333333333336,155.57144935888826 64.18666666666667,155.57144935888826 66.4,155.57144935888826 68.61333333333333,155.57144935888826 68.61333333333333,152.87490231846482 70.82666666666667,152.87490231846482 70.82666666666667,144.32249996753484 73.04,144.32249996753484 73.04,139.4128664413709 75.25333333333333,139.4128664413709 77.46666666666667,139.4128664413709 79.68,139.4128664413709 79.68,136.2979227249451 81.89333333333333,136.2979227249451 84.10666666666667,136.2979227249451 84.10666666666667,135.30049944362557 86.32,135.30049944362557 88.53333333333333,135.30049944362557 90.74666666666667,135.30049944362557 92.96,135.30049944362557 92.96,134.8711582271248 95.17333333333333,134.8711582271248 95.17333333333333,128.82652933929612 97.38666666666667,128.82652933929612 99.6,128.82652933929612 101.81333333333333,128.82652933929612 104.02666666666667,128.82652933929612 106.24,128.82652933929612 108.45333333333333,128.82652933929612 110.66666666666667,128.82652933929612 112.88,128.82652933929612 112.88,122.14992864337172 115.09333333333333,122.14992864337172 117.30666666666667,122.14992864337172 119.52,122.14992864337172 121.73333333333333,122.14992864337172 123.94666666666667,122.14992864337172 126.16,122.14992864337172 128.37333333333333,122.14992864337172 130.58666666666667,122.14992864337172 130.58666666666667,121.43992891066027 132.8,121.43992891066027 135.01333333333332,121.43992891066027 137.22666666666666,121.43992891066027 139.44,121.43992891066027 141.65333333333334,121.43992891066027 143.86666666666667,121.43992891066027 146.08,121.43992891066027 148.29333333333332,121.43992891066027 150.50666666666666,121.43992891066027 152.72,121.43992891066027 154.93333333333334,121.43992891066027 157.14666666666668,121.43992891066027 157.14666666666668,116.06150915792 159.36,116.06150915792 159.36,113.53131792072573 161.57333333333332,113.53131792072573 163.78666666666666,113.53131792072573 166,113.53131792072573 168.21333333333334,113.53131792072573 170.42666666666668,113.53131792072573 170.42666666666668,112.28377973843054 172.64,112.28377973843054 174.85333333333332,112.28377973843054 177.06666666666666,112.28377973843054 179.28,112.28377973843054 181.49333333333334,112.28377973843054 183.70666666666668,112.28377973843054 185.92,112.28377973843054 188.13333333333333,112.28377973843054 190.34666666666666,112.28377973843054 192.56,112.28377973843054 194.77333333333334,112.28377973843054 194.77333333333334,99.19190324117592 196.98666666666668,99.19190324117592 199.2,99.19190324117592 201.41333333333333,99.19190324117592 203.62666666666667,99.19190324117592 205.84,99.19190324117592 208.05333333333334,99.19190324117592 210.26666666666668,99.19190324117592 212.48,99.19190324117592 214.69333333333333,99.19190324117592 216.90666666666667,99.19190324117592 219.12,99.19190324117592 221.33333333333334,99.19190324117592 223.54666666666665,99.19190324117592 225.76,99.19190324117592 227.97333333333333,99.19190324117592 230.18666666666667,99.19190324117592 232.4,99.19190324117592 234.61333333333334,99.19190324117592 236.82666666666665,99.19190324117592 236.82666666666665,97.06621861547767 239.04,97.06621861547767 241.25333333333333,97.06621861547767 243.46666666666667,97.06621861547767 245.68,97.06621861547767 245.68,90.3835773579168 247.89333333333335,90.3835773579168 250.10666666666665,90.3835773579168 252.32,90.3835773579168 254.53333333333333,90.3835773579168 256.74666666666667,90.3835773579168 258.96,90.3835773579168 261.17333333333335,90.3835773579168 263.38666666666666,90.3835773579168 265.6,90.3835773579168 267.81333333333333,90.3835773579168 270.02666666666664,90.3835773579168 272.24,90.3835773579168 274.4533333333333,90.3835773579168 276.6666666666667,90.3835773579168 278.88,90.3835773579168 281.0933333333333,90.3835773579168 281.0933333333333,87.61238388998314 283.3066666666667,87.61238388998314 285.52,87.61238388998314 287.73333333333335,87.61238388998314 289.94666666666666,87.61238388998314 292.16,87.61238388998314 294.37333333333333,87.61238388998314 296.58666666666664,87.61238388998314 298.8,87.61238388998314 301.0133333333333,87.61238388998314 303.2266666666667,87.61238388998314 305.44,87.61238388998314 307.6533333333333,87.61238388998314 309.8666666666667,87.61238388998314" fill="none" stroke="#bbbbbb" stroke-width="2"/>
<circle cx="6.64" cy="162.305" r="2" fill="#22c55e" opacity="0.18"/>
<circle cx="8.853333333333333" cy="162.305" r="2" fill="#22c55e" opacity="0.18"/>
<circle cx="11.066666666666666" cy="162.305" r="2" fill="#22c55e" opacity="0.18"/>
<circle cx="13.28" cy="168.33820359686595" r="2" fill="#22c55e" opacity="0.18"/>
<circle cx="15.493333333333334" cy="162.305" r="2" fill="#22c55e" opacity="0.18"/>
<circle cx="17.706666666666667" cy="162.305" r="2" fill="#22c55e" opacity="0.18"/>
<circle cx="19.92" cy="162.305" r="2" fill="#22c55e" opacity="0.18"/>
<circle cx="22.133333333333333" cy="162.305" r="2" fill="#22c55e" opacity="0.18"/>
<circle cx="24.346666666666668" cy="162.305" r="2" fill="#22c55e" opacity="0.18"/>
<circle cx="26.56" cy="162.305" r="2" fill="#22c55e" opacity="0.18"/>
<circle cx="28.773333333333333" cy="162.305" r="2" fill="#22c55e" opacity="0.18"/>
<circle cx="30.986666666666668" cy="164.01495227768686" r="2" fill="#22c55e" opacity="0.18"/>
<circle cx="33.2" cy="162.305" r="2" fill="#22c55e" opacity="0.18"/>
<circle cx="37.626666666666665" cy="163.49152887984846" r="2" fill="#22c55e" opacity="0.18"/>
<circle cx="44.266666666666666" cy="147.55" r="2" fill="#22c55e" opacity="0.18"/>
<circle cx="46.48" cy="147.55" r="2" fill="#22c55e" opacity="0.18"/>
<circle cx="48.693333333333335" cy="154.90926728197329" r="2" fill="#22c55e" opacity="0.18"/>
<circle cx="53.12" cy="147.90149872933154" r="2" fill="#22c55e" opacity="0.18"/>
<circle cx="57.54666666666667" cy="143.86990557779106" r="2" fill="#22c55e" opacity="0.18"/>
<circle cx="61.973333333333336" cy="125.40024007854745" r="2" fill="#22c55e" opacity="0.18"/>
<circle cx="68.61333333333333" cy="136.05256904096893" r="2" fill="#22c55e" opacity="0.18"/>
<circle cx="70.82666666666667" cy="115.01333333333332" r="2" fill="#22c55e" opacity="0.18"/>
<circle cx="73.04" cy="124.75722173866025" r="2" fill="#22c55e" opacity="0.18"/>
<circle cx="75.25333333333333" cy="118.0332753151603" r="2" fill="#22c55e" opacity="0.18"/>
<circle cx="77.46666666666667" cy="115.01333333333332" r="2" fill="#22c55e" opacity="0.18"/>
<circle cx="86.32" cy="111.48047550067926" r="2" fill="#22c55e" opacity="0.18"/>
<circle cx="95.17333333333333" cy="85.50420590225607" r="2" fill="#22c55e" opacity="0.18"/>
<circle cx="97.38666666666667" cy="92.15314856453487" r="2" fill="#22c55e" opacity="0.18"/>
<circle cx="99.6" cy="92.19193241853267" r="2" fill="#22c55e" opacity="0.18"/>
<circle cx="104.02666666666667" cy="73.80384255879869" r="2" fill="#22c55e" opacity="0.18"/>
<circle cx="108.45333333333333" cy="72.15837721465245" r="2" fill="#22c55e" opacity="0.18"/>
<circle cx="112.88" cy="58.12364517639972" r="2" fill="#22c55e" opacity="0.18"/>
<circle cx="117.30666666666667" cy="65.14552511690626" r="2" fill="#22c55e" opacity="0.18"/>
<circle cx="119.52" cy="53.345" r="2" fill="#22c55e" opacity="0.18"/>
<circle cx="123.94666666666667" cy="60.53850744837453" r="2" fill="#22c55e" opacity="0.18"/>
<circle cx="128.37333333333333" cy="45.30882292974651" r="2" fill="#22c55e" opacity="0.18"/>
<circle cx="130.58666666666667" cy="48.4286516532373" r="2" fill="#22c55e" opacity="0.18"/>
<circle cx="132.8" cy="56.8226555479407" r="2" fill="#22c55e" opacity="0.18"/>
<circle cx="135.01333333333332" cy="41.99500000000001" r="2" fill="#22c55e" opacity="0.18"/>
<circle cx="141.65333333333334" cy="47.919466670350104" r="2" fill="#22c55e" opacity="0.18"/>
<circle cx="146.08" cy="34.94317059165899" r="2" fill="#22c55e" opacity="0.18"/>
<circle cx="148.29333333333332" cy="30.513775718381872" r="2" fill="#22c55e" opacity="0.18"/>
<circle cx="152.72" cy="34.42833333333332" r="2" fill="#22c55e" opacity="0.18"/>
<circle cx="154.93333333333334" cy="34.050000000000004" r="2" fill="#22c55e" opacity="0.18"/>
<circle cx="157.14666666666668" cy="36.32000000000001" r="2" fill="#22c55e" opacity="0.18"/>
<circle cx="159.36" cy="35.94166666666666" r="2" fill="#22c55e" opacity="0.18"/>
<circle cx="161.57333333333332" cy="36.60274796345582" r="2" fill="#22c55e" opacity="0.18"/>
<circle cx="163.78666666666666" cy="32.158333333333346" r="2" fill="#22c55e" opacity="0.18"/>
<circle cx="166" cy="35.18500000000001" r="2" fill="#22c55e" opacity="0.18"/>
<circle cx="168.21333333333334" cy="34.806666666666665" r="2" fill="#22c55e" opacity="0.18"/>
<circle cx="0" cy="200.13833333333335" r="3.5" fill="#22c55e" opacity="0.85" stroke="#264653" stroke-width="0.5"/>
<circle cx="2.2133333333333334" cy="166.845" r="3.5" fill="#22c55e" opacity="0.85" stroke="#264653" stroke-width="0.5"/>
<circle cx="4.426666666666667" cy="162.305" r="3.5" fill="#22c55e" opacity="0.85" stroke="#264653" stroke-width="0.5"/>
<circle cx="35.413333333333334" cy="161.92666666666668" r="3.5" fill="#22c55e" opacity="0.85" stroke="#264653" stroke-width="0.5"/>
<circle cx="39.84" cy="148.5350028724667" r="3.5" fill="#22c55e" opacity="0.85" stroke="#264653" stroke-width="0.5"/>
<circle cx="42.053333333333335" cy="147.55" r="3.5" fill="#22c55e" opacity="0.85" stroke="#264653" stroke-width="0.5"/>
<circle cx="50.906666666666666" cy="147.17166666666665" r="3.5" fill="#22c55e" opacity="0.85" stroke="#264653" stroke-width="0.5"/>
<circle cx="55.333333333333336" cy="129.25457443295568" r="3.5" fill="#22c55e" opacity="0.85" stroke="#264653" stroke-width="0.5"/>
<circle cx="59.76" cy="120.96003484846212" r="3.5" fill="#22c55e" opacity="0.85" stroke="#264653" stroke-width="0.5"/>
<circle cx="64.18666666666667" cy="116.97433701737806" r="3.5" fill="#22c55e" opacity="0.85" stroke="#264653" stroke-width="0.5"/>
<circle cx="66.4" cy="115.01333333333332" r="3.5" fill="#22c55e" opacity="0.85" stroke="#264653" stroke-width="0.5"/>
<circle cx="79.68" cy="114.635" r="3.5" fill="#22c55e" opacity="0.85" stroke="#264653" stroke-width="0.5"/>
<circle cx="81.89333333333333" cy="100.40605197549486" r="3.5" fill="#22c55e" opacity="0.85" stroke="#264653" stroke-width="0.5"/>
<circle cx="84.10666666666667" cy="94.96166666666667" r="3.5" fill="#22c55e" opacity="0.85" stroke="#264653" stroke-width="0.5"/>
<circle cx="88.53333333333333" cy="94.58333333333333" r="3.5" fill="#22c55e" opacity="0.85" stroke="#264653" stroke-width="0.5"/>
<circle cx="90.74666666666667" cy="83.89882970715563" r="3.5" fill="#22c55e" opacity="0.85" stroke="#264653" stroke-width="0.5"/>
<circle cx="92.96" cy="78.45301127237579" r="3.5" fill="#22c55e" opacity="0.85" stroke="#264653" stroke-width="0.5"/>
<circle cx="101.81333333333333" cy="73.74769990288341" r="3.5" fill="#22c55e" opacity="0.85" stroke="#264653" stroke-width="0.5"/>
<circle cx="106.24" cy="71.88333333333333" r="3.5" fill="#22c55e" opacity="0.85" stroke="#264653" stroke-width="0.5"/>
<circle cx="110.66666666666667" cy="57.00393770733407" r="3.5" fill="#22c55e" opacity="0.85" stroke="#264653" stroke-width="0.5"/>
<circle cx="115.09333333333333" cy="53.345" r="3.5" fill="#22c55e" opacity="0.85" stroke="#264653" stroke-width="0.5"/>
<circle cx="121.73333333333333" cy="52.966666666666654" r="3.5" fill="#22c55e" opacity="0.85" stroke="#264653" stroke-width="0.5"/>
<circle cx="126.16" cy="41.99500000000001" r="3.5" fill="#22c55e" opacity="0.85" stroke="#264653" stroke-width="0.5"/>
<circle cx="137.22666666666666" cy="41.61666666666667" r="3.5" fill="#22c55e" opacity="0.85" stroke="#264653" stroke-width="0.5"/>
<circle cx="139.44" cy="31.111615482510757" r="3.5" fill="#22c55e" opacity="0.85" stroke="#264653" stroke-width="0.5"/>
<circle cx="143.86666666666667" cy="30.12557090643171" r="3.5" fill="#22c55e" opacity="0.85" stroke="#264653" stroke-width="0.5"/>
<circle cx="150.50666666666666" cy="27.61833333333334" r="3.5" fill="#22c55e" opacity="0.85" stroke="#264653" stroke-width="0.5"/>
<polyline points="0,200.13833333333335 2.2133333333333334,200.13833333333335 2.2133333333333334,166.845 4.426666666666667,166.845 4.426666666666667,162.305 6.64,162.305 8.853333333333333,162.305 11.066666666666666,162.305 13.28,162.305 15.493333333333334,162.305 17.706666666666667,162.305 19.92,162.305 22.133333333333333,162.305 24.346666666666668,162.305 26.56,162.305 28.773333333333333,162.305 30.986666666666668,162.305 33.2,162.305 35.413333333333334,162.305 35.413333333333334,161.92666666666668 37.626666666666665,161.92666666666668 39.84,161.92666666666668 39.84,148.5350028724667 42.053333333333335,148.5350028724667 42.053333333333335,147.55 44.266666666666666,147.55 46.48,147.55 48.693333333333335,147.55 50.906666666666666,147.55 50.906666666666666,147.17166666666665 53.12,147.17166666666665 55.333333333333336,147.17166666666665 55.333333333333336,129.25457443295568 57.54666666666667,129.25457443295568 59.76,129.25457443295568 59.76,120.96003484846212 61.973333333333336,120.96003484846212 64.18666666666667,120.96003484846212 64.18666666666667,116.97433701737806 66.4,116.97433701737806 66.4,115.01333333333332 68.61333333333333,115.01333333333332 70.82666666666667,115.01333333333332 73.04,115.01333333333332 75.25333333333333,115.01333333333332 77.46666666666667,115.01333333333332 79.68,115.01333333333332 79.68,114.635 81.89333333333333,114.635 81.89333333333333,100.40605197549486 84.10666666666667,100.40605197549486 84.10666666666667,94.96166666666667 86.32,94.96166666666667 88.53333333333333,94.96166666666667 88.53333333333333,94.58333333333333 90.74666666666667,94.58333333333333 90.74666666666667,83.89882970715563 92.96,83.89882970715563 92.96,78.45301127237579 95.17333333333333,78.45301127237579 97.38666666666667,78.45301127237579 99.6,78.45301127237579 101.81333333333333,78.45301127237579 101.81333333333333,73.74769990288341 104.02666666666667,73.74769990288341 106.24,73.74769990288341 106.24,71.88333333333333 108.45333333333333,71.88333333333333 110.66666666666667,71.88333333333333 110.66666666666667,57.00393770733407 112.88,57.00393770733407 115.09333333333333,57.00393770733407 115.09333333333333,53.345 117.30666666666667,53.345 119.52,53.345 121.73333333333333,53.345 121.73333333333333,52.966666666666654 123.94666666666667,52.966666666666654 126.16,52.966666666666654 126.16,41.99500000000001 128.37333333333333,41.99500000000001 130.58666666666667,41.99500000000001 132.8,41.99500000000001 135.01333333333332,41.99500000000001 137.22666666666666,41.99500000000001 137.22666666666666,41.61666666666667 139.44,41.61666666666667 139.44,31.111615482510757 141.65333333333334,31.111615482510757 143.86666666666667,31.111615482510757 143.86666666666667,30.12557090643171 146.08,30.12557090643171 148.29333333333332,30.12557090643171 150.50666666666666,30.12557090643171 150.50666666666666,27.61833333333334 152.72,27.61833333333334 154.93333333333334,27.61833333333334 157.14666666666668,27.61833333333334 159.36,27.61833333333334 161.57333333333332,27.61833333333334 163.78666666666666,27.61833333333334 166,27.61833333333334 168.21333333333334,27.61833333333334" fill="none" stroke="#22c55e" stroke-width="2"/>
<circle cx="0" cy="200.13833333333335" r="4" fill="#22c55e" stroke="#fff" stroke-width="1.5"/>
<text x="0" y="214.13833333333335" text-anchor="middle" font-size="7.5" font-weight="bold" fill="#333">671</text>
<circle cx="2.2133333333333334" cy="166.845" r="4" fill="#22c55e" stroke="#fff" stroke-width="1.5"/>
<text x="2.2133333333333334" y="180.845" text-anchor="middle" font-size="7.5" font-weight="bold" fill="#333">759</text>
<circle cx="35.413333333333334" cy="161.92666666666668" r="4" fill="#22c55e" stroke="#fff" stroke-width="1.5"/>
<text x="35.413333333333334" y="175.92666666666668" text-anchor="middle" font-size="7.5" font-weight="bold" fill="#333">772</text>
<circle cx="50.906666666666666" cy="147.17166666666665" r="4" fill="#22c55e" stroke="#fff" stroke-width="1.5"/>
<text x="50.906666666666666" y="161.17166666666665" text-anchor="middle" font-size="7.5" font-weight="bold" fill="#333">811</text>
<circle cx="79.68" cy="114.635" r="4" fill="#22c55e" stroke="#fff" stroke-width="1.5"/>
<text x="79.68" y="128.635" text-anchor="middle" font-size="7.5" font-weight="bold" fill="#333">897</text>
<circle cx="88.53333333333333" cy="94.58333333333333" r="4" fill="#22c55e" stroke="#fff" stroke-width="1.5"/>
<text x="88.53333333333333" y="108.58333333333333" text-anchor="middle" font-size="7.5" font-weight="bold" fill="#333">950</text>
<circle cx="106.24" cy="71.88333333333333" r="4" fill="#22c55e" stroke="#fff" stroke-width="1.5"/>
<text x="106.24" y="61.883333333333326" text-anchor="middle" font-size="7.5" font-weight="bold" fill="#333">1010</text>
<circle cx="121.73333333333333" cy="52.966666666666654" r="4" fill="#22c55e" stroke="#fff" stroke-width="1.5"/>
<text x="121.73333333333333" y="42.966666666666654" text-anchor="middle" font-size="7.5" font-weight="bold" fill="#333">1060</text>
<circle cx="137.22666666666666" cy="41.61666666666667" r="4" fill="#22c55e" stroke="#fff" stroke-width="1.5"/>
<text x="137.22666666666666" y="31.616666666666667" text-anchor="middle" font-size="7.5" font-weight="bold" fill="#333">1090</text>
<circle cx="150.50666666666666" cy="27.61833333333334" r="4" fill="#22c55e" stroke="#fff" stroke-width="1.5"/>
<text x="150.50666666666666" y="17.61833333333334" text-anchor="middle" font-size="7.5" font-weight="bold" fill="#333">1127</text>
<line x1="0" x2="332" y1="227" y2="227" stroke="#333" stroke-width="0.5"/>
<line x1="0" x2="0" y1="227" y2="231" stroke="#333" stroke-width="0.5"/>
<text x="0" y="243" text-anchor="middle" font-size="9" fill="#333">0</text>
<line x1="55.333333333333336" x2="55.333333333333336" y1="227" y2="231" stroke="#333" stroke-width="0.5"/>
<text x="55.333333333333336" y="243" text-anchor="middle" font-size="9" fill="#333">25</text>
<line x1="110.66666666666667" x2="110.66666666666667" y1="227" y2="231" stroke="#333" stroke-width="0.5"/>
<text x="110.66666666666667" y="243" text-anchor="middle" font-size="9" fill="#333">50</text>
<line x1="166" x2="166" y1="227" y2="231" stroke="#333" stroke-width="0.5"/>
<text x="166" y="243" text-anchor="middle" font-size="9" fill="#333">75</text>
<line x1="221.33333333333334" x2="221.33333333333334" y1="227" y2="231" stroke="#333" stroke-width="0.5"/>
<text x="221.33333333333334" y="243" text-anchor="middle" font-size="9" fill="#333">100</text>
<line x1="276.6666666666667" x2="276.6666666666667" y1="227" y2="231" stroke="#333" stroke-width="0.5"/>
<text x="276.6666666666667" y="243" text-anchor="middle" font-size="9" fill="#333">125</text>
<line x1="332" x2="332" y1="227" y2="231" stroke="#333" stroke-width="0.5"/>
<text x="332" y="243" text-anchor="middle" font-size="9" fill="#333">150</text>
<text x="166" y="265" text-anchor="middle" font-size="11" fill="#333">Iteration</text>
<line x1="0" x2="0" y1="0" y2="227" stroke="#333" stroke-width="0.5"/>
<line x1="-4" x2="0" y1="227" y2="227" stroke="#333" stroke-width="0.5"/>
<text x="-8" y="230" text-anchor="end" font-size="9" fill="#333">600</text>
<line x1="-4" x2="0" y1="189.16666666666669" y2="189.16666666666669" stroke="#333" stroke-width="0.5"/>
<text x="-8" y="192.16666666666669" text-anchor="end" font-size="9" fill="#333">700</text>
<line x1="-4" x2="0" y1="151.33333333333334" y2="151.33333333333334" stroke="#333" stroke-width="0.5"/>
<text x="-8" y="154.33333333333334" text-anchor="end" font-size="9" fill="#333">800</text>
<line x1="-4" x2="0" y1="113.5" y2="113.5" stroke="#333" stroke-width="0.5"/>
<text x="-8" y="116.5" text-anchor="end" font-size="9" fill="#333">900</text>
<line x1="-4" x2="0" y1="75.66666666666667" y2="75.66666666666667" stroke="#333" stroke-width="0.5"/>
<text x="-8" y="78.66666666666667" text-anchor="end" font-size="9" fill="#333">1000</text>
<line x1="-4" x2="0" y1="37.83333333333332" y2="37.83333333333332" stroke="#333" stroke-width="0.5"/>
<text x="-8" y="40.83333333333332" text-anchor="end" font-size="9" fill="#333">1100</text>
<line x1="-4" x2="0" y1="0" y2="0" stroke="#333" stroke-width="0.5"/>
<text x="-8" y="3" text-anchor="end" font-size="9" fill="#333">1200</text>
<text transform="rotate(-90)" x="-113.5" y="-50" text-anchor="middle" font-size="11" fill="#333">TFLOPS (E4M3)</text>
<circle cx="348" cy="10" r="4" fill="#bbbbbb"/>
<text x="356" y="14" font-size="9" fill="#333">Random (no pruning/ranking)</text>
<circle cx="348" cy="28" r="4" fill="#22c55e"/>
<text x="356" y="32" font-size="9" fill="#333">Model-guided</text>
</g>
</svg>